<svg xmlns="http://www.w3.org/2000/svg" width="48.008" height="26.516" viewBox="0 0 48.008 26.516">
  <g id="펀드가입2" transform="translate(-701 -288)">
    <path id="패스_17909" data-name="패스 17909" d="M47.744.325a.991.991,0,0,0-.97-.3L40.685,1.49a1,1,0,0,0,.467,1.944L44,2.751,28.41,15.538l-9.755-5.161a1,1,0,0,0-1.106.114L.361,24.747a1,1,0,0,0,1.278,1.539L18.31,12.457l9.751,5.16a1,1,0,0,0,1.1-.111L44.7,4.763,44.11,6.529a1,1,0,1,0,1.9.633l1.948-5.845a1,1,0,0,0-.212-.992" transform="translate(701 288)" fill="#f6cc5f"/>
  </g>
</svg>
