<svg xmlns="http://www.w3.org/2000/svg" width="39.056" height="50.714" viewBox="0 0 39.056 50.714">
  <g id="빠른조회1" transform="translate(-1009.5 -222.501)">
    <g id="그룹_5960" data-name="그룹 5960" transform="translate(1010 223)">
      <path id="합치기_15" data-name="합치기 15" d="M12914.121,6338.715a4.985,4.985,0,0,1-5.121-4.825v-40.064a4.985,4.985,0,0,1,5.121-4.825h27.813a4.985,4.985,0,0,1,5.121,4.825v40.064a4.985,4.985,0,0,1-5.121,4.825Zm0-2h27.813a3,3,0,0,0,3.115-2.678c0-.048,0-.1,0-.145v-40.064a2.988,2.988,0,0,0-3.12-2.827h-27.813a2.991,2.991,0,0,0-3.123,2.827v40.064A2.99,2.99,0,0,0,12914.121,6336.713Z" transform="translate(-12909 -6289)" fill="#0369d1" stroke="rgba(0,0,0,0)" stroke-miterlimit="10" stroke-width="1"/>
      <path id="패스_52" data-name="패스 52" d="M31.269,9.937H6.825a1,1,0,0,1,0-2H31.269a1,1,0,1,1,0,2" transform="translate(0 0)" fill="#0369d1"/>
      <path id="패스_53" data-name="패스 53" d="M23.269,15.825H6.825a1,1,0,0,1,0-2H23.269a1,1,0,0,1,0,2" transform="translate(0 0)" fill="#0369d1"/>
      <path id="패스_54" data-name="패스 54" d="M19.269,21.715H6.825a1,1,0,0,1,0-2H19.269a1,1,0,0,1,0,2" transform="translate(0 0)" fill="#0369d1"/>
    </g>
  </g>
</svg>
