<svg id="alert-circle" xmlns="http://www.w3.org/2000/svg" width="26" height="26" viewBox="0 0 26 26">
  <path id="타원_116" data-name="타원 116" d="M8.75-1A9.75,9.75,0,0,1,18.5,8.75,9.75,9.75,0,0,1,8.75,18.5,9.75,9.75,0,0,1-1,8.75,9.75,9.75,0,0,1,8.75-1Zm0,17.727A7.977,7.977,0,1,0,.773,8.75,7.986,7.986,0,0,0,8.75,16.727Z" transform="translate(4.25 4.25)" fill="#56606b"/>
  <path id="선_305" data-name="선 305" d="M-.114,4.318A.886.886,0,0,1-1,3.432V-.114A.886.886,0,0,1-.114-1a.886.886,0,0,1,.886.886V3.432A.886.886,0,0,1-.114,4.318Z" transform="translate(13.114 9.568)" fill="#56606b"/>
  <path id="선_306" data-name="선 306" d="M-.1.773H-.114A.886.886,0,0,1-1-.114.886.886,0,0,1-.114-1H-.1a.886.886,0,0,1,.886.886A.886.886,0,0,1-.1.773Z" transform="translate(13.114 16.659)" fill="#56606b"/>
  <rect id="사각형_1805" data-name="사각형 1805" width="26" height="26" fill="rgba(255,155,155,0)"/>
</svg>
