<svg xmlns="http://www.w3.org/2000/svg" width="23.123" height="23.122" viewBox="0 0 23.123 23.122">
  <g id="거래내역2" transform="translate(-109.891 -296.405)">
    <g id="그룹_5961" data-name="그룹 5961">
      <circle id="타원_441" data-name="타원 441" cx="11" cy="11" r="11" transform="translate(110 297)" fill="#fff"/>
      <g id="그룹_5958" data-name="그룹 5958" transform="translate(0 42)">
        <path id="패스_17901" data-name="패스 17901" d="M33.453,56.527A11.561,11.561,0,1,1,45.014,44.966,11.575,11.575,0,0,1,33.453,56.527m0-21.122a9.561,9.561,0,1,0,9.561,9.561A9.573,9.573,0,0,0,33.453,35.4" transform="translate(88 221)" fill="#f6cc5f"/>
        <path id="패스_17902" data-name="패스 17902" d="M39.89,44.692H38.8l.988-3.314a.75.75,0,1,0-1.437-.43l-1.117,3.744-.447,1.5L36.3,47.827l-.451-1.635-.414-1.5-1.074-3.9a.749.749,0,0,0-.705-.55.773.773,0,0,0-.731.516l-1.286,3.929-.492,1.5-.63,1.925-.62-1.925-.483-1.5L28.094,40.6a.75.75,0,0,0-1.428.459l1.169,3.629h-.948a.75.75,0,0,0,0,1.5h1.431l1.476,4.582a.75.75,0,0,0,.712.521h0a.751.751,0,0,0,.713-.517l1.5-4.586.491-1.5.36-1.1.3,1.1.414,1.5,1.256,4.552a.752.752,0,0,0,.715.551.778.778,0,0,0,.727-.536l1.362-4.567h1.54a.75.75,0,0,0,0-1.5" transform="translate(88 221)" fill="#f6cc5f"/>
      </g>
    </g>
  </g>
</svg>
