<svg xmlns="http://www.w3.org/2000/svg" width="17.024" height="13.161" viewBox="0 0 17.024 13.161">
  <g id="즉시이체2" transform="translate(-255.2 -289.824)">
    <path id="패스_17904" data-name="패스 17904" d="M30.6,22.3H29.323l1.16-3.89a.88.88,0,1,0-1.687-.5L27.485,22.3l-.525,1.761-.573,1.919-.529-1.919L25.372,22.3l-1.261-4.572a.88.88,0,0,0-.828-.646.907.907,0,0,0-.858.606L20.916,22.3l-.578,1.761-.74,2.26-.728-2.26L18.3,22.3l-1.546-4.8a.88.88,0,0,0-1.676.539l1.372,4.26H15.341a.88.88,0,1,0,0,1.761h1.68l1.733,5.379a.881.881,0,0,0,.836.612h0a.881.881,0,0,0,.837-.607l1.763-5.383.576-1.761.423-1.289.354,1.289.486,1.761L25.506,29.4a.883.883,0,0,0,.839.647.913.913,0,0,0,.853-.629l1.6-5.361H30.6a.88.88,0,1,0,0-1.761" transform="translate(240.739 272.938)" fill="#f6cc5f"/>
  </g>
</svg>
