<svg xmlns="http://www.w3.org/2000/svg" xmlns:xlink="http://www.w3.org/1999/xlink" width="46.667" height="50.699" viewBox="0 0 46.667 50.699">
  <defs>
    <clipPath id="clip-path">
      <rect id="사각형_2140" data-name="사각형 2140" width="46.667" height="50.699" fill="#fff"/>
    </clipPath>
  </defs>
  <g id="대출가입1" transform="translate(-855 -223)">
    <g id="그룹_31" data-name="그룹 31" transform="translate(855 223)" clip-path="url(#clip-path)">
      <path id="패스_48" data-name="패스 48" d="M31.037,10.718a1.029,1.029,0,0,0-.208-.026V8.336L37.357,1.7A1,1,0,0,0,36.644,0H10.154a1,1,0,0,0-.72,1.694l5.9,6.109v3C13.186,11.457,0,16.108,0,31.671,0,46.977,12.845,50.161,20.572,50.7l5.592,0c7.658-.536,20.5-3.72,20.5-19.026,0-16.853-15.473-20.914-15.63-20.953M17.329,9.435h11.5v.75h-11.5ZM34.257,2,29.883,6.446c-.018,0-.034-.011-.054-.011H16.789L12.508,2ZM26.095,48.7l-5.454,0C12.137,48.107,2,44.669,2,31.671,2,16.962,14.57,13.082,16,12.688H30.665c1.433.394,14,4.274,14,18.983,0,13-10.137,16.436-18.572,17.028" transform="translate(0 0)" fill="#0369d1"/>
    </g>
  </g>
</svg>
