<svg xmlns="http://www.w3.org/2000/svg" width="18" height="18" viewBox="0 0 18 18">
  <path id="검색아이콘" d="M34.546,30l-5.538-5.538A6.572,6.572,0,0,1,27.069,25.5a6.742,6.742,0,0,1-2.146.346A6.914,6.914,0,0,1,18,18.923,6.914,6.914,0,0,1,24.923,12a6.914,6.914,0,0,1,6.923,6.923,6.742,6.742,0,0,1-.346,2.146,6.572,6.572,0,0,1-1.038,1.938L36,28.546Zm-9.623-6.231a4.846,4.846,0,0,0,4.846-4.846,4.846,4.846,0,0,0-4.846-4.846,4.846,4.846,0,0,0-4.846,4.846,4.846,4.846,0,0,0,4.846,4.846Z" transform="translate(-18 -12)" fill="#2a2a2a"/>
</svg>
