<svg xmlns="http://www.w3.org/2000/svg" width="39.002" height="50.227" viewBox="0 0 39.002 50.227">
  <g id="거래내역1" transform="translate(-87.499 -220.499)">
    <g id="그룹_5957" data-name="그룹 5957" transform="translate(88 221)">
      <path id="합치기_14" data-name="합치기 14" d="M13834.323,6340.227a3.326,3.326,0,0,1-3.324-3.321v-42.583a3.326,3.326,0,0,1,3.324-3.324h31.354a3.326,3.326,0,0,1,3.324,3.324v42.583a3.325,3.325,0,0,1-3.324,3.321Zm31.354-2a1.322,1.322,0,0,0,1.323-1.319v-42.583a1.322,1.322,0,0,0-1.323-1.322h-31.354a1.322,1.322,0,0,0-1.322,1.322V6336.9a1.322,1.322,0,0,0,1.322,1.323h31.354Z" transform="translate(-13831 -6291)" fill="#0369d1" stroke="rgba(0,0,0,0)" stroke-miterlimit="10" stroke-width="1"/>
      <path id="패스_28" data-name="패스 28" d="M31.222,9.8H6.778a1,1,0,1,1,0-2H31.222a1,1,0,1,1,0,2" transform="translate(0 0)" fill="#0369d1"/>
      <path id="패스_29" data-name="패스 29" d="M31.222,15.688H6.778a1,1,0,1,1,0-2H31.222a1,1,0,1,1,0,2" transform="translate(0 0)" fill="#0369d1"/>
      <path id="패스_30" data-name="패스 30" d="M31.222,21.577H6.778a1,1,0,1,1,0-2H31.222a1,1,0,1,1,0,2" transform="translate(0 0)" fill="#0369d1"/>
      <path id="패스_31" data-name="패스 31" d="M31.222,27.466H6.778a1,1,0,0,1,0-2H31.222a1,1,0,1,1,0,2" transform="translate(0 0)" fill="#0369d1"/>
    </g>
  </g>
</svg>
