<svg xmlns="http://www.w3.org/2000/svg" xmlns:xlink="http://www.w3.org/1999/xlink" width="37.778" height="49.85" viewBox="0 0 37.778 49.85">
  <defs>
    <clipPath id="clip-path">
      <rect id="사각형_2142" data-name="사각형 2142" width="37.778" height="49.85" fill="#fff"/>
    </clipPath>
  </defs>
  <g id="인증센터1" transform="translate(-1166 -223)">
    <g id="그룹_35" data-name="그룹 35" transform="translate(1166 223)" clip-path="url(#clip-path)">
      <path id="패스_56" data-name="패스 56" d="M18.889,2.275l16.93,9.241V27.853c0,7.406-7.28,15.006-12.681,18.217a17.543,17.543,0,0,1-4.249,1.584,18.585,18.585,0,0,1-4.6-1.795C8.934,42.537,1.959,35.1,1.959,27.853V11.516ZM.68,9.713A1.409,1.409,0,0,0,0,10.961v16.8C0,36.111,7.32,44.144,13.334,47.8a22.077,22.077,0,0,0,5.555,2.052,21.425,21.425,0,0,0,5.325-1.914c6.055-3.585,13.564-11.717,13.564-20.178v-16.8a1.409,1.409,0,0,0-.68-1.248L19.675.2A1.616,1.616,0,0,0,18.1.2Z" transform="translate(0 0)" fill="#0369d1"/>
      <path id="패스_57" data-name="패스 57" d="M18.889,7.183l13.262,7.238v12.8c0,5.8-5.7,11.755-9.934,14.269a13.734,13.734,0,0,1-3.328,1.241,14.6,14.6,0,0,1-3.6-1.4c-4.2-2.6-9.662-8.427-9.662-14.105v-12.8ZM4.625,13.009a1.1,1.1,0,0,0-.532.978V27.144c0,6.543,5.734,12.836,10.444,15.7a17.276,17.276,0,0,0,4.352,1.608,16.8,16.8,0,0,0,4.171-1.5c4.743-2.808,10.625-9.179,10.625-15.806V13.987a1.1,1.1,0,0,0-.532-.978L19.5,5.56a1.268,1.268,0,0,0-1.232,0Z" transform="translate(0 0)" fill="#0369d1"/>
    </g>
  </g>
</svg>
