<svg xmlns="http://www.w3.org/2000/svg" width="16.519" height="16.519" viewBox="0 0 16.519 16.519">
  <g id="예금가입2" transform="translate(-568.584 -313)">
    <circle id="타원_443" data-name="타원 443" cx="7.5" cy="7.5" r="7.5" transform="translate(569 314)" fill="#fff"/>
    <path id="패스_17906" data-name="패스 17906" d="M28.844,16.519A8.259,8.259,0,1,1,37.1,8.259a8.27,8.27,0,0,1-8.259,8.26m0-15.09a6.831,6.831,0,1,0,6.83,6.83,6.838,6.838,0,0,0-6.83-6.83" transform="translate(548 313)" fill="#f6cc5f"/>
    <path id="패스_17907" data-name="패스 17907" d="M33.444,8.064h-.781L33.369,5.7a.536.536,0,0,0-1.027-.307l-.8,2.675-.319,1.072-.35,1.167-.321-1.167-.3-1.072-.767-2.782a.536.536,0,0,0-.5-.394.553.553,0,0,0-.522.369l-.919,2.807-.351,1.072-.449,1.375L26.3,9.136l-.344-1.072-.941-2.92A.536.536,0,0,0,24,5.471l.834,2.593h-.676a.536.536,0,1,0,0,1.072h1.022l1.055,3.273a.534.534,0,0,0,.508.372h0a.537.537,0,0,0,.509-.369l1.073-3.276.351-1.072.257-.784.216.784.3,1.072.9,3.251a.536.536,0,0,0,.511.394.557.557,0,0,0,.52-.382l.972-3.263h1.1a.536.536,0,0,0,0-1.072" transform="translate(548 313)" fill="#f6cc5f"/>
  </g>
</svg>
