<svg xmlns="http://www.w3.org/2000/svg" width="55.961" height="41.352" viewBox="0 0 55.961 41.352">
  <g id="예금가입1" transform="translate(-543 -227.59)">
    <g id="그룹_5959" data-name="그룹 5959" transform="translate(543 224)">
      <path id="패스_42" data-name="패스 42" d="M55.364,18.424c-3.335-1.47-6.616-5.7-7.2-6.478a37.964,37.964,0,0,1,.585-7.185,1,1,0,0,0-1.062-1.168c-2.83.218-5.777,3.138-7.632,5.356-1.015-.275-2.033-.52-3.027-.724a1,1,0,1,0-.4,1.959c.685.141,1.383.308,2.083.485-.247.34-.427.6-.5.714A1,1,0,0,0,39.862,12.5c1.066-1.58,4.046-5.351,6.679-6.549-.362,2.622-.812,7.414.4,9.163a1,1,0,0,0,.823.43.988.988,0,0,0,.568-.178c.015-.01.022-.026.036-.036a21.56,21.56,0,0,0,5.593,4.637v8.268c-1.931.751-6.977,3.035-7.788,6.66-.35,1.572-1.4,6.2-1.822,8.046h-4.94v-3.73a1,1,0,0,0-1.55-.835c-.306.2-7.567,4.859-14.48-.091A1,1,0,0,0,21.8,39.1v3.719H16.475c-1.2-2.068-5.848-10.657-5.848-19.427,0-6,3.954-10.8,10.578-12.857a1,1,0,0,0-.593-1.91c-7.5,2.328-11.985,7.848-11.985,14.767,0,.124.011.246.013.37a1.09,1.09,0,0,0-.393.324c.1-.138-.069.075-.076.083-.059.062-.122.121-.187.178a2.21,2.21,0,0,1-.332.219,2.984,2.984,0,0,1-1.028.353,2.5,2.5,0,0,1-.25.023c.128-.1.265-.2.384-.309a3.376,3.376,0,0,0,1.249-2.579,2.4,2.4,0,0,0-2.276-2.379,3.6,3.6,0,0,0-2.652,1.962,4.17,4.17,0,0,0-.535,2.16,2.242,2.242,0,0,1-.517-.475A.267.267,0,0,0,2,23.292a.206.206,0,0,0-.021-.037c-.055-.085-.106-.17-.153-.259a.178.178,0,0,0-.018-.03A.251.251,0,0,0,1.8,22.93c-.022-.074-.04-.149-.056-.224,0-.036-.009-.113-.008-.132,0-.04,0-.079.006-.119l.008-.041a1.307,1.307,0,0,1,.18-.448.876.876,0,0,0-1.512-.884,2.869,2.869,0,0,0,.008,2.993,4.518,4.518,0,0,0,2.294,1.752,3.7,3.7,0,0,0,1.042.218,4.6,4.6,0,0,0,4.991-.131c.837,9.593,6.066,18.051,6.307,18.435a1,1,0,0,0,.847.469H22.8a1,1,0,0,0,1-1V40.9c5.513,2.969,11.012,1.178,13.613-.028v3.069a1,1,0,0,0,1,1H45.15a1,1,0,0,0,.975-.778s1.557-6.847,2-8.832c.6-2.674,5.368-4.841,7.157-5.451a1,1,0,0,0,.678-.947V19.339a1,1,0,0,0-.6-.915M4.2,24.289l-.066.018a.475.475,0,0,1,.07-.02l0,0m1.651-2.87H5.843a.083.083,0,0,0-.023-.02l.029.02m-1.4,1.363c.021-.039.07-.14.07-.14.044-.083.092-.165.142-.244a2.516,2.516,0,0,1,.208-.294,3.546,3.546,0,0,1,.408-.414.638.638,0,0,0,.055-.05A.625.625,0,0,0,5.4,21.6c.028-.019.319-.175.176-.115a1.183,1.183,0,0,1,.184-.056l.058-.007c.017.014.058.025.031,0h.007a1.084,1.084,0,0,0,.095.062,1.066,1.066,0,0,1,.244.359c-.063-.135.037.117.038.121.011.04.019.08.027.12l0,.047c0,.056,0,.112-.007.168-.009.03-.026.114-.032.132s-.039.106-.047.131c-.025.052-.051.1-.08.155-.04.068-.083.134-.127.2a.438.438,0,0,0-.025.04c-.009.01-.01.009-.033.036a4.766,4.766,0,0,1-.389.4c-.058.054-.118.105-.178.156l-.1.083c-.1.077-.2.151-.31.222-.176.118-.357.227-.542.33L4.367,24.1a2.07,2.07,0,0,1,.085-1.316" fill="#0369d1"/>
      <path id="패스_43" data-name="패스 43" d="M47.487,20.249a1.172,1.172,0,1,0-1.172,1.172,1.173,1.173,0,0,0,1.172-1.172" fill="#0369d1"/>
      <path id="패스_17908" data-name="패스 17908" d="M20.594,8.609s9.625-2.359,17.016-.25-1.047,1.8-1.047,1.8a35.381,35.381,0,0,0-15.75.469c-8.734,2.219-3.094-.656-3.094-.656Z" fill="#0369d1"/>
    </g>
  </g>
</svg>
