<svg xmlns="http://www.w3.org/2000/svg" width="23.123" height="23.122" viewBox="0 0 23.123 23.122">
  <g id="대출가입2" transform="translate(-866.772 -298.122)">
    <path id="패스_17910" data-name="패스 17910" d="M23.334,42.244A11.561,11.561,0,1,1,34.9,30.683,11.575,11.575,0,0,1,23.334,42.244m0-21.122A9.561,9.561,0,1,0,32.9,30.683a9.573,9.573,0,0,0-9.561-9.561" transform="translate(855 279)" fill="#f6cc5f"/>
    <path id="패스_17911" data-name="패스 17911" d="M29.771,30.409H28.679l.988-3.314a.75.75,0,1,0-1.437-.43l-1.117,3.744-.447,1.5-.488,1.635-.451-1.635-.414-1.5-1.074-3.9a.749.749,0,0,0-.7-.55.773.773,0,0,0-.731.516l-1.286,3.929-.492,1.5-.63,1.925-.62-1.925-.483-1.5-1.316-4.088a.75.75,0,0,0-1.429.459l1.169,3.629h-.948a.75.75,0,0,0,0,1.5H18.2l1.476,4.582a.751.751,0,0,0,.712.521h0a.751.751,0,0,0,.713-.517l1.5-4.586.491-1.5.36-1.1.3,1.1.414,1.5,1.256,4.552a.752.752,0,0,0,.715.551.778.778,0,0,0,.727-.536l1.362-4.567h1.54a.75.75,0,0,0,0-1.5" transform="translate(855 279)" fill="#f6cc5f"/>
  </g>
</svg>
