<svg xmlns="http://www.w3.org/2000/svg" width="53.163" height="43.482" viewBox="0 0 53.163 43.482">
  <g id="그룹_3687" data-name="그룹 3687" transform="translate(-186.56 -1550.169)">
    <path id="패스_3181" data-name="패스 3181" d="M239.723,1579.427c0-6.962-4.476-12.769-10.363-13.986a3.985,3.985,0,0,0-1.924-2.691l2.992-6.589a3.013,3.013,0,1,0-1.448-.655l-3.024,6.658a5.18,5.18,0,0,0-1.13-.128,4.5,4.5,0,0,0-4.487,3.167h-14.4a4.5,4.5,0,0,0-4.487-3.167,5.179,5.179,0,0,0-1.13.128L197.3,1555.5a3.088,3.088,0,1,0-1.448.655l2.992,6.589a3.985,3.985,0,0,0-1.924,2.691c-5.887,1.218-10.363,7.024-10.363,13.986,0,7.843,5.678,14.224,12.658,14.224h27.846C234.044,1593.651,239.723,1587.27,239.723,1579.427Zm-8.816-27.668a1.427,1.427,0,1,1-1.427,1.427A1.429,1.429,0,0,1,230.907,1551.759Zm-35.531,2.854a1.427,1.427,0,1,1,1.427-1.427A1.429,1.429,0,0,1,195.376,1554.613Zm29.451,9.012a3.04,3.04,0,0,1,2.818,1.594c-.193-.01-.386-.017-.581-.017h-5.048A3.046,3.046,0,0,1,224.827,1563.624Zm-23.371,0a3.046,3.046,0,0,1,2.81,1.577h-5.048c-.195,0-.388.007-.581.017A3.04,3.04,0,0,1,201.456,1563.624Zm25.609,28.437H199.218c-6.1,0-11.069-5.668-11.069-12.635s4.965-12.635,11.069-12.635h27.846c6.1,0,11.069,5.668,11.069,12.635S233.168,1592.062,227.064,1592.062Z" transform="translate(0)" fill="#656565"/>
    <path id="패스_3182" data-name="패스 3182" d="M309.221,1907.658h-29.8c-3.981,0-6.87,3.891-6.87,9.252,0,5.534,2.761,9.252,6.87,9.252h29.8c4.43,0,6.87-3.286,6.87-9.252S313.651,1907.658,309.221,1907.658Zm0,16.915h-29.8c-3.9,0-5.281-4.128-5.281-7.663,0-4.441,2.221-7.663,5.281-7.663h29.8c3.5,0,5.281,2.578,5.281,7.663S312.725,1924.573,309.221,1924.573Z" transform="translate(-81.181 -337.484)" fill="#656565"/>
    <path id="패스_3183" data-name="패스 3183" d="M397.673,1991.817a3.4,3.4,0,1,0,3.4,3.4A3.4,3.4,0,0,0,397.673,1991.817Zm0,5.209a1.81,1.81,0,1,1,1.81-1.81A1.812,1.812,0,0,1,397.673,1997.027Z" transform="translate(-196.089 -416.934)" fill="#656565"/>
    <path id="패스_3184" data-name="패스 3184" d="M816.1,1991.817a3.4,3.4,0,1,0,3.4,3.4A3.4,3.4,0,0,0,816.1,1991.817Zm0,5.209a1.81,1.81,0,1,1,1.81-1.81A1.812,1.812,0,0,1,816.1,1997.027Z" transform="translate(-591.097 -416.934)" fill="#656565"/>
    <path id="패스_3185" data-name="패스 3185" d="M588.54,2098.884h-7.85a.8.8,0,0,0-.795.795c0,2.277,2.117,4.129,4.72,4.129s4.72-1.853,4.72-4.129A.8.8,0,0,0,588.54,2098.884Zm-3.925,3.335a3.146,3.146,0,0,1-2.974-1.745h5.947A3.146,3.146,0,0,1,584.615,2102.219Z" transform="translate(-371.324 -518.009)" fill="#656565"/>
  </g>
</svg>
