<svg xmlns="http://www.w3.org/2000/svg" width="11.999" height="13.762" viewBox="0 0 11.999 13.762">
  <g id="인증센터2" transform="translate(-1181.89 -288.423)">
    <path id="패스_17914" data-name="패스 17914" d="M24.608,22.269a.572.572,0,0,0-.575-.555h-.216c-.144-2.945-2.3-5.291-4.928-5.291s-4.784,2.346-4.927,5.291h-.216a.574.574,0,0,0-.576.553l-.28,7.321a.574.574,0,0,0,.575.6H24.313a.572.572,0,0,0,.415-.175.58.58,0,0,0,.16-.422Zm-5.719-4.694c2,0,3.623,1.833,3.762,4.139H15.127c.139-2.306,1.764-4.139,3.762-4.139m4.588,5.291.237,6.167H14.065l.236-6.167Z" transform="translate(1169 272)" fill="#f6cc5f"/>
    <path id="패스_17915" data-name="패스 17915" d="M18.552,25.159l-.224,2.162h1.121l-.223-2.162a.644.644,0,0,0,.317-.547.654.654,0,0,0-1.308,0,.644.644,0,0,0,.317.547" transform="translate(1169 272)" fill="#f6cc5f"/>
  </g>
</svg>
