<svg xmlns="http://www.w3.org/2000/svg" xmlns:xlink="http://www.w3.org/1999/xlink" width="43.552" height="43.537" viewBox="0 0 43.552 43.537">
  <defs>
    <clipPath id="clip-path">
      <rect id="사각형_2136" data-name="사각형 2136" width="43.552" height="43.537" fill="#fff"/>
    </clipPath>
  </defs>
  <g id="그룹_23" data-name="그룹 23" clip-path="url(#clip-path)">
    <path id="패스_33" data-name="패스 33" d="M30.6,22.3H29.323l1.16-3.89a.88.88,0,1,0-1.687-.5L27.485,22.3l-.525,1.761-.573,1.919-.529-1.919L25.372,22.3l-1.261-4.572a.88.88,0,0,0-.828-.646.907.907,0,0,0-.858.606L20.916,22.3l-.578,1.761-.74,2.26-.728-2.26L18.3,22.3l-1.546-4.8a.88.88,0,0,0-1.676.539l1.372,4.26H15.341a.88.88,0,1,0,0,1.761h1.68l1.733,5.379a.881.881,0,0,0,.836.612h0a.881.881,0,0,0,.837-.607l1.763-5.383.576-1.761.423-1.289.354,1.289.486,1.761L25.506,29.4a.883.883,0,0,0,.839.647.913.913,0,0,0,.853-.629l1.6-5.361H30.6a.88.88,0,1,0,0-1.761" transform="translate(-1.261 -0.975)" fill="#f6cc5f"/>
    <path id="패스_34" data-name="패스 34" d="M21.809,43.537A21.793,21.793,0,0,1,4.84,35.471,1,1,0,1,1,6.4,34.215,19.771,19.771,0,0,0,40.646,15.907a1,1,0,0,1,1.908-.6A21.739,21.739,0,0,1,21.809,43.537" transform="translate(0 0)" fill="#0369d1"/>
    <path id="패스_35" data-name="패스 35" d="M1.471,27.179a1,1,0,0,1-.977-.788A21.771,21.771,0,0,1,39.2,8.747a1,1,0,0,1-1.6,1.2A19.77,19.77,0,0,0,2.45,25.967a1,1,0,0,1-.766,1.189.971.971,0,0,1-.213.023" transform="translate(0 0)" fill="#0369d1"/>
    <path id="패스_36" data-name="패스 36" d="M4.772,39.794a1,1,0,0,1-.984-.831l-1.031-6a1,1,0,0,1,1.112-1.162l5.882.746A1,1,0,1,1,9.5,34.535L4.957,33.96l.8,4.665a1,1,0,0,1-.816,1.154.985.985,0,0,1-.17.015" transform="translate(0 0)" fill="#0369d1"/>
    <path id="패스_37" data-name="패스 37" d="M39.25,12.462a1.029,1.029,0,0,1-.22-.024l-5.785-1.306a1,1,0,1,1,.44-1.951l4.467,1.008L37.8,5.47A1,1,0,0,1,38.724,4.4a.989.989,0,0,1,1.071.923l.452,6.066a1,1,0,0,1-1,1.074" transform="translate(0 0)" fill="#0369d1"/>
  </g>
</svg>
