<svg xmlns="http://www.w3.org/2000/svg" xmlns:xlink="http://www.w3.org/1999/xlink" width="45.013" height="56.527" viewBox="0 0 45.013 56.527">
  <defs>
    <clipPath id="clip-path">
      <rect id="사각형_2135" data-name="사각형 2135" width="45.013" height="56.527" fill="#fff"/>
    </clipPath>
  </defs>
  <g id="거래내역아이콘" transform="translate(0)">
    <g id="그룹_21" data-name="그룹 21" transform="translate(0)" clip-path="url(#clip-path)">
      <path id="패스_25" data-name="패스 25" d="M33.453,56.527A11.561,11.561,0,1,1,45.014,44.966,11.575,11.575,0,0,1,33.453,56.527m0-21.122a9.561,9.561,0,1,0,9.561,9.561A9.573,9.573,0,0,0,33.453,35.4" transform="translate(0 0)" fill="#f6cc5f"/>
      <path id="패스_26" data-name="패스 26" d="M39.89,44.692H38.8l.988-3.314a.75.75,0,1,0-1.437-.43l-1.117,3.744-.447,1.5L36.3,47.827l-.451-1.635-.414-1.5-1.074-3.9a.749.749,0,0,0-.705-.55.773.773,0,0,0-.731.516l-1.286,3.929-.492,1.5-.63,1.925-.62-1.925-.483-1.5L28.094,40.6a.75.75,0,0,0-1.428.459l1.169,3.629h-.948a.75.75,0,0,0,0,1.5h1.431l1.476,4.582a.75.75,0,0,0,.712.521h0a.751.751,0,0,0,.713-.517l1.5-4.586.491-1.5.36-1.1.3,1.1.414,1.5,1.256,4.552a.752.752,0,0,0,.715.551.778.778,0,0,0,.727-.536l1.362-4.567h1.54a.75.75,0,0,0,0-1.5" transform="translate(0 0)" fill="#f6cc5f"/>
      <path id="패스_27" data-name="패스 27" d="M3.322,47.226A1.323,1.323,0,0,1,2,45.9V3.322A1.323,1.323,0,0,1,3.322,2H34.677A1.324,1.324,0,0,1,36,3.322V33.775a11.505,11.505,0,0,1,2,.647V3.322A3.326,3.326,0,0,0,34.677,0H3.322A3.325,3.325,0,0,0,0,3.322V45.9a3.325,3.325,0,0,0,3.322,3.322h19.35a11.5,11.5,0,0,1-.583-2Z" transform="translate(0 0)" fill="#0369d1"/>
      <path id="패스_28" data-name="패스 28" d="M31.222,9.8H6.778a1,1,0,1,1,0-2H31.222a1,1,0,1,1,0,2" transform="translate(0 0)" fill="#0369d1"/>
      <path id="패스_29" data-name="패스 29" d="M31.222,15.688H6.778a1,1,0,1,1,0-2H31.222a1,1,0,1,1,0,2" transform="translate(0 0)" fill="#0369d1"/>
      <path id="패스_30" data-name="패스 30" d="M31.222,21.577H6.778a1,1,0,1,1,0-2H31.222a1,1,0,1,1,0,2" transform="translate(0 0)" fill="#0369d1"/>
      <path id="패스_31" data-name="패스 31" d="M31.222,27.466H6.778a1,1,0,0,1,0-2H31.222a1,1,0,1,1,0,2" transform="translate(0 0)" fill="#0369d1"/>
    </g>
  </g>
</svg>
