<svg xmlns="http://www.w3.org/2000/svg" xmlns:xlink="http://www.w3.org/1999/xlink" width="45.111" height="44.863" viewBox="0 0 45.111 44.863">
  <defs>
    <clipPath id="clip-path">
      <rect id="사각형_2137" data-name="사각형 2137" width="45.111" height="44.863" fill="#fff"/>
    </clipPath>
  </defs>
  <g id="그룹_25" data-name="그룹 25" clip-path="url(#clip-path)">
    <path id="패스_38" data-name="패스 38" d="M34.778,10.4H10.334a1,1,0,0,1,0-2H34.778a1,1,0,0,1,0,2" transform="translate(0 0)" fill="#0369d1"/>
    <path id="패스_39" data-name="패스 39" d="M18.778,16.289H10.334a1,1,0,1,1,0-2h8.444a1,1,0,0,1,0,2" transform="translate(0 0)" fill="#0369d1"/>
    <path id="패스_40" data-name="패스 40" d="M45.081,40.3l-3.408-14.91a1.1,1.1,0,0,0-.069-.166V3.938A3.943,3.943,0,0,0,37.665,0H7.432A3.931,3.931,0,0,0,3.506,3.925v21.3a1.209,1.209,0,0,0-.069.166L.03,40.3a1.153,1.153,0,0,0-.03.268,4.3,4.3,0,0,0,4.294,4.294H40.817a4.3,4.3,0,0,0,4.294-4.294,1.21,1.21,0,0,0-.03-.268m-4.264,2.154H4.294a1.887,1.887,0,0,1-1.882-1.766l3.08-13.481H17.707a7.078,7.078,0,0,1-.894-2.753H5.715V3.925A1.719,1.719,0,0,1,7.432,2.208H37.665a1.732,1.732,0,0,1,1.73,1.73V24.455H31a7.048,7.048,0,0,1-.9,2.753h9.523L42.7,40.689a1.888,1.888,0,0,1-1.882,1.766" transform="translate(0 0)" fill="#0369d1"/>
    <path id="패스_41" data-name="패스 41" d="M34.567,34.606l-5.314-5.314a7.145,7.145,0,1,0-1.669,1.358l5.469,5.47a1.071,1.071,0,0,0,1.514-1.514M18.985,24.5A4.995,4.995,0,1,1,23.98,29.5,5,5,0,0,1,18.985,24.5" transform="translate(0 0)" fill="#f6cc5f"/>
  </g>
</svg>
