<svg xmlns="http://www.w3.org/2000/svg" width="68.531" height="62.541" viewBox="0 0 68.531 62.541">
  <g id="그룹_5117" data-name="그룹 5117" transform="translate(-1223.237 -2667.601)">
    <g id="그룹_5116" data-name="그룹 5116">
      <g id="그룹_5115" data-name="그룹 5115" transform="translate(1244.94 2667.601)">
        <g id="그룹_3727" data-name="그룹 3727" transform="translate(0)">
          <g id="그룹_3725" data-name="그룹 3725">
            <path id="패스_3288" data-name="패스 3288" d="M162.548,322.6v42.161a2.376,2.376,0,0,1-2.369,2.367H120.5a2.375,2.375,0,0,1-2.367-2.367v-51.3a2.375,2.375,0,0,1,2.367-2.369h29.457" transform="translate(-116.926 -309.888)" fill="#fff"/>
            <path id="패스_3289" data-name="패스 3289" d="M159.384,367.542H119.7a3.576,3.576,0,0,1-3.572-3.573v-51.3a3.577,3.577,0,0,1,3.572-3.575H149.16a1.205,1.205,0,0,1,0,2.411H119.7a1.164,1.164,0,0,0-1.161,1.164v51.3a1.163,1.163,0,0,0,1.161,1.162h39.681a1.164,1.164,0,0,0,1.164-1.162V321.809a1.205,1.205,0,1,1,2.411,0V363.97A3.578,3.578,0,0,1,159.384,367.542Z" transform="translate(-116.131 -309.093)" fill="#656565"/>
          </g>
          <g id="그룹_3726" data-name="그룹 3726" transform="translate(32.13 0)">
            <path id="패스_3290" data-name="패스 3290" d="M171.442,311.093v11.052h12.287Z" transform="translate(-170.237 -309.888)" fill="#33a6ff"/>
            <path id="패스_3291" data-name="패스 3291" d="M182.934,322.555H170.647a1.205,1.205,0,0,1-1.205-1.205V310.3a1.205,1.205,0,0,1,2.011-.9l12.287,11.052a1.205,1.205,0,0,1-.806,2.1Zm-11.081-2.411h7.939L171.853,313Z" transform="translate(-169.442 -309.093)" fill="#656565"/>
          </g>
        </g>
        <g id="그룹_3728" data-name="그룹 3728" transform="translate(9.197 21.899)">
          <rect id="사각형_2138" data-name="사각형 2138" width="14.448" height="2.411" fill="#656565"/>
        </g>
        <g id="그룹_3729" data-name="그룹 3729" transform="translate(9.197 45.56)">
          <rect id="사각형_2139" data-name="사각형 2139" width="14.448" height="2.411" transform="translate(0 0)" fill="#656565"/>
        </g>
        <g id="그룹_3730" data-name="그룹 3730" transform="translate(9.197 29.786)">
          <rect id="사각형_2140" data-name="사각형 2140" width="26.464" height="2.411" fill="#656565"/>
        </g>
        <g id="그룹_3731" data-name="그룹 3731" transform="translate(9.197 37.673)">
          <rect id="사각형_2141" data-name="사각형 2141" width="26.464" height="2.411" fill="#656565"/>
        </g>
        <rect id="사각형_2142" data-name="사각형 2142" width="18.429" height="5.581" transform="translate(9.197 11.186)" fill="#fd0"/>
      </g>
      <g id="그룹_5114" data-name="그룹 5114" transform="translate(1223.237 2693.456)">
        <g id="그룹_4104" data-name="그룹 4104">
          <path id="패스_3757" data-name="패스 3757" d="M653.495,351.357a17.114,17.114,0,1,1-17.112-17.116A17.115,17.115,0,0,1,653.495,351.357Z" transform="translate(-618.038 -333.013)" fill="#fd0"/>
          <path id="패스_3758" data-name="패스 3758" d="M635.61,368.927a18.343,18.343,0,1,1,18.34-18.342A18.364,18.364,0,0,1,635.61,368.927Zm0-34.231a15.888,15.888,0,1,0,15.885,15.889A15.906,15.906,0,0,0,635.61,334.7Z" transform="translate(-617.266 -332.241)" fill="#656565"/>
        </g>
        <g id="그룹_4105" data-name="그룹 4105" transform="translate(4.857 4.857)">
          <path id="패스_3759" data-name="패스 3759" d="M651.694,354.414a12.258,12.258,0,1,1-12.256-12.259A12.258,12.258,0,0,1,651.694,354.414Z" transform="translate(-625.951 -340.927)" fill="#fd0"/>
          <path id="패스_3760" data-name="패스 3760" d="M638.665,367.127a13.486,13.486,0,1,1,13.484-13.486A13.5,13.5,0,0,1,638.665,367.127Zm0-24.517a11.031,11.031,0,1,0,11.029,11.031A11.044,11.044,0,0,0,638.665,342.61Z" transform="translate(-625.179 -340.155)" fill="#656565"/>
        </g>
        <g id="그룹_4109" data-name="그룹 4109" transform="translate(17.114 1.726)">
          <g id="그룹_4107" data-name="그룹 4107">
            <rect id="사각형_2203" data-name="사각형 2203" width="2.455" height="4.125" fill="#656565"/>
          </g>
          <g id="그룹_4108" data-name="그룹 4108" transform="translate(0 29.333)">
            <rect id="사각형_2204" data-name="사각형 2204" width="2.455" height="4.125" fill="#656565"/>
          </g>
        </g>
        <g id="그룹_4112" data-name="그룹 4112" transform="translate(5.644 5.758)">
          <g id="그룹_4110" data-name="그룹 4110" transform="translate(20.742 0)">
            <rect id="사각형_2205" data-name="사각형 2205" width="4.125" height="2.455" transform="translate(0 2.917) rotate(-45)" fill="#656565"/>
          </g>
          <g id="그룹_4111" data-name="그룹 4111" transform="translate(0 20.742)">
            <rect id="사각형_2206" data-name="사각형 2206" width="4.125" height="2.455" transform="translate(0 2.917) rotate(-45)" fill="#656565"/>
          </g>
        </g>
        <g id="그룹_4115" data-name="그룹 4115" transform="translate(1.612 17.227)">
          <g id="그룹_4113" data-name="그룹 4113" transform="translate(29.334)">
            <rect id="사각형_2207" data-name="사각형 2207" width="4.125" height="2.455" fill="#656565"/>
          </g>
          <g id="그룹_4114" data-name="그룹 4114">
            <rect id="사각형_2208" data-name="사각형 2208" width="4.126" height="2.455" fill="#656565"/>
          </g>
        </g>
        <g id="그룹_4118" data-name="그룹 4118" transform="translate(5.644 5.758)">
          <g id="그룹_4116" data-name="그룹 4116" transform="translate(20.742 20.742)">
            <rect id="사각형_2209" data-name="사각형 2209" width="2.455" height="4.125" transform="matrix(0.707, -0.707, 0.707, 0.707, 0, 1.736)" fill="#656565"/>
          </g>
          <g id="그룹_4117" data-name="그룹 4117" transform="translate(0 0)">
            <rect id="사각형_2210" data-name="사각형 2210" width="2.455" height="4.125" transform="translate(0 1.736) rotate(-45.003)" fill="#656565"/>
          </g>
        </g>
        <text id="_" data-name="￦" transform="translate(10.763 23.544)" fill="#656565" font-size="13" font-family="NotoSansKR-Bold, Noto Sans Korean" font-weight="700" letter-spacing="-0.02em"><tspan x="0" y="0">￦</tspan></text>
      </g>
    </g>
  </g>
</svg>
