<svg xmlns="http://www.w3.org/2000/svg" xmlns:xlink="http://www.w3.org/1999/xlink" width="46.667" height="50.699" viewBox="0 0 46.667 50.699">
  <defs>
    <clipPath id="clip-path">
      <rect id="사각형_2140" data-name="사각형 2140" width="46.667" height="50.699" fill="#fff"/>
    </clipPath>
  </defs>
  <g id="그룹_31" data-name="그룹 31" clip-path="url(#clip-path)">
    <path id="패스_48" data-name="패스 48" d="M31.037,10.718a1.029,1.029,0,0,0-.208-.026V8.336L37.357,1.7A1,1,0,0,0,36.644,0H10.154a1,1,0,0,0-.72,1.694l5.9,6.109v3C13.186,11.457,0,16.108,0,31.671,0,46.977,12.845,50.161,20.572,50.7l5.592,0c7.658-.536,20.5-3.72,20.5-19.026,0-16.853-15.473-20.914-15.63-20.953M17.329,9.435h11.5v.75h-11.5ZM34.257,2,29.883,6.446c-.018,0-.034-.011-.054-.011H16.789L12.508,2ZM26.095,48.7l-5.454,0C12.137,48.107,2,44.669,2,31.671,2,16.962,14.57,13.082,16,12.688H30.665c1.433.394,14,4.274,14,18.983,0,13-10.137,16.436-18.572,17.028" transform="translate(0 0)" fill="#0369d1"/>
    <path id="패스_49" data-name="패스 49" d="M23.334,42.244A11.561,11.561,0,1,1,34.9,30.683,11.575,11.575,0,0,1,23.334,42.244m0-21.122A9.561,9.561,0,1,0,32.9,30.683a9.573,9.573,0,0,0-9.561-9.561" transform="translate(0 0)" fill="#f6cc5f"/>
    <path id="패스_50" data-name="패스 50" d="M29.771,30.409H28.679l.988-3.314a.75.75,0,1,0-1.437-.43l-1.117,3.744-.447,1.5-.488,1.635-.451-1.635-.414-1.5-1.074-3.9a.749.749,0,0,0-.7-.55.773.773,0,0,0-.731.516l-1.286,3.929-.492,1.5-.63,1.925-.62-1.925-.483-1.5-1.316-4.088a.75.75,0,0,0-1.429.459l1.169,3.629h-.948a.75.75,0,0,0,0,1.5H18.2l1.476,4.582a.751.751,0,0,0,.712.521h0a.751.751,0,0,0,.713-.517l1.5-4.586.491-1.5.36-1.1.3,1.1.414,1.5,1.256,4.552a.752.752,0,0,0,.715.551.778.778,0,0,0,.727-.536l1.362-4.567h1.54a.75.75,0,0,0,0-1.5" transform="translate(0 0)" fill="#f6cc5f"/>
  </g>
</svg>
