<svg xmlns="http://www.w3.org/2000/svg" xmlns:xlink="http://www.w3.org/1999/xlink" width="44.956" height="49.715" viewBox="0 0 44.956 49.715">
  <defs>
    <clipPath id="clip-path">
      <rect id="사각형_2141" data-name="사각형 2141" width="44.956" height="49.715" fill="#fff"/>
    </clipPath>
  </defs>
  <g id="그룹_33" data-name="그룹 33" clip-path="url(#clip-path)">
    <path id="패스_51" data-name="패스 51" d="M32.936,49.715H5.122A4.986,4.986,0,0,1,0,44.889V4.826A4.986,4.986,0,0,1,5.122,0H32.936a4.986,4.986,0,0,1,5.12,4.826V20.4a1,1,0,1,1-2,0V4.826A2.988,2.988,0,0,0,32.936,2H5.122A2.989,2.989,0,0,0,2,4.826V44.889a2.989,2.989,0,0,0,3.122,2.826H32.936a2.988,2.988,0,0,0,3.12-2.826V31.767a1,1,0,0,1,2,0V44.889a4.986,4.986,0,0,1-5.12,4.826" transform="translate(0 0)" fill="#0369d1"/>
    <path id="패스_52" data-name="패스 52" d="M31.269,9.937H6.825a1,1,0,0,1,0-2H31.269a1,1,0,1,1,0,2" transform="translate(0 0)" fill="#0369d1"/>
    <path id="패스_53" data-name="패스 53" d="M23.269,15.825H6.825a1,1,0,0,1,0-2H23.269a1,1,0,0,1,0,2" transform="translate(0 0)" fill="#0369d1"/>
    <path id="패스_54" data-name="패스 54" d="M19.269,21.715H6.825a1,1,0,0,1,0-2H19.269a1,1,0,0,1,0,2" transform="translate(0 0)" fill="#0369d1"/>
    <path id="패스_55" data-name="패스 55" d="M44.6,37.418,38.551,31.37a8.141,8.141,0,1,0-1.9,1.545l6.225,6.226A1.218,1.218,0,1,0,44.6,37.418m-17.734-11.5A5.685,5.685,0,1,1,32.55,31.6a5.692,5.692,0,0,1-5.685-5.684" transform="translate(0 0)" fill="#f6cc5f"/>
  </g>
</svg>
