<svg xmlns="http://www.w3.org/2000/svg" width="68.533" height="55.079" viewBox="0 0 68.533 55.079">
  <g id="그룹_5113" data-name="그룹 5113" transform="translate(0.263)">
    <g id="그룹_3692" data-name="그룹 3692" transform="translate(0 32.651)">
      <path id="패스_3252" data-name="패스 3252" d="M1146.591,734.146h6.863a3.419,3.419,0,0,1,3.1,1.78l6.046,16.465c.36.979-.45,1.78-1.8,1.78h-62.091c-1.348,0-2.157-.8-1.8-1.78l6.046-16.465a3.419,3.419,0,0,1,3.1-1.78h6.693" transform="translate(-1095.758 -733.069)" fill="#fff"/>
      <path id="패스_3253" data-name="패스 3253" d="M1159.886,754.324h-62.091a3.037,3.037,0,0,1-2.567-1.155,2.23,2.23,0,0,1-.242-2.072l6.047-16.466a4.421,4.421,0,0,1,4.115-2.485h6.693a1.077,1.077,0,1,1,0,2.153h-6.693a2.425,2.425,0,0,0-2.094,1.074l-6.047,16.466a.213.213,0,0,0-.018.091c.02.052.263.241.806.241h62.091c.541,0,.786-.189.806-.242a.231.231,0,0,0-.019-.09l-6.047-16.466a2.425,2.425,0,0,0-2.094-1.074h-6.863a1.077,1.077,0,0,1,0-2.153h6.863a4.423,4.423,0,0,1,4.115,2.485l6.046,16.465a2.225,2.225,0,0,1-.241,2.072A3.037,3.037,0,0,1,1159.886,754.324Z" transform="translate(-1094.836 -732.146)" fill="#656565" stroke="#656565" stroke-width="0.5"/>
    </g>
    <path id="패스_3254" data-name="패스 3254" d="M1149.791,737.363h4.938a2.458,2.458,0,0,1,2.234,1.281l4.35,11.846c.258.7-.324,1.281-1.293,1.281h-44.676c-.97,0-1.552-.576-1.293-1.281l4.35-11.846a2.458,2.458,0,0,1,2.234-1.281h4.816" transform="translate(-1103.679 -701.903)" fill="#33a6ff"/>
    <g id="그룹_3693" data-name="그룹 3693" transform="translate(6.715 6.61)">
      <path id="패스_3761" data-name="패스 3761" d="M0,0H52.423V26.206H0Z" transform="translate(1.077 1.077)" fill="#fff"/>
      <path id="패스_3255" data-name="패스 3255" d="M1160.81,712.132h-52.423a1.077,1.077,0,0,1-1.077-1.077V684.85a1.077,1.077,0,0,1,1.077-1.077h52.423a1.077,1.077,0,0,1,1.077,1.077v26.206A1.077,1.077,0,0,1,1160.81,712.132Zm-51.346-2.153h50.269V685.926h-50.269Z" transform="translate(-1107.311 -683.773)" fill="#656565" stroke="#656565" stroke-width="0.5"/>
    </g>
    <g id="그룹_3703" data-name="그룹 3703" transform="translate(24.246)">
      <g id="그룹_3694" data-name="그룹 3694" transform="translate(0 5.382)">
        <path id="패스_3256" data-name="패스 3256" d="M1158.16,688.887h-16.286v-5.394h16.286Z" transform="translate(-1140.797 -682.416)" fill="#fff"/>
        <path id="패스_3257" data-name="패스 3257" d="M1157.237,689.041h-16.286a1.077,1.077,0,0,1-1.077-1.077v-5.4a1.077,1.077,0,0,1,1.077-1.077h16.286a1.077,1.077,0,0,1,1.077,1.077v5.4A1.077,1.077,0,0,1,1157.237,689.041Zm-15.209-2.153h14.133v-3.242h-14.133Z" transform="translate(-1139.874 -681.492)" fill="#656565"/>
      </g>
      <g id="그룹_3696" data-name="그룹 3696">
        <rect id="사각형_2132" data-name="사각형 2132" width="16.286" height="5.394" rx="2" transform="translate(1.077 1.077)" fill="#fd0"/>
        <g id="그룹_3695" data-name="그룹 3695">
          <path id="패스_3258" data-name="패스 3258" d="M1156.161,679.043h-14.133a2.155,2.155,0,0,1-2.153-2.154v-3.241a2.155,2.155,0,0,1,2.153-2.153h14.133a2.155,2.155,0,0,1,2.153,2.153v3.241A2.156,2.156,0,0,1,1156.161,679.043Zm-14.133-5.395v3.241h14.133v-3.241Z" transform="translate(-1139.874 -671.495)" fill="#656565"/>
        </g>
      </g>
      <g id="그룹_3697" data-name="그룹 3697" transform="translate(0 10.971)">
        <path id="패스_3259" data-name="패스 3259" d="M1158.16,699.27h-16.286v-5.4h16.286Z" transform="translate(-1140.797 -692.798)" fill="#fd0"/>
        <path id="패스_3260" data-name="패스 3260" d="M1157.237,699.423h-16.286a1.076,1.076,0,0,1-1.077-1.077v-5.395a1.077,1.077,0,0,1,1.077-1.077h16.286a1.077,1.077,0,0,1,1.077,1.077v5.395A1.077,1.077,0,0,1,1157.237,699.423Zm-15.209-2.153h14.133v-3.241h-14.133Z" transform="translate(-1139.874 -691.875)" fill="#656565"/>
      </g>
      <g id="그룹_3698" data-name="그룹 3698" transform="translate(0 16.772)">
        <path id="패스_3261" data-name="패스 3261" d="M1158.16,710.044h-16.286v-5.395h16.286Z" transform="translate(-1140.797 -703.573)" fill="#fff"/>
        <path id="패스_3262" data-name="패스 3262" d="M1157.237,710.2h-16.286a1.077,1.077,0,0,1-1.077-1.077v-5.4a1.077,1.077,0,0,1,1.077-1.077h16.286a1.077,1.077,0,0,1,1.077,1.077v5.4A1.077,1.077,0,0,1,1157.237,710.2Zm-15.209-2.153h14.133V704.8h-14.133Z" transform="translate(-1139.874 -702.649)" fill="#656565"/>
      </g>
      <g id="그룹_3699" data-name="그룹 3699" transform="translate(0 21.725)">
        <path id="패스_3263" data-name="패스 3263" d="M1158.16,719.245h-16.286V713.85h16.286Z" transform="translate(-1140.797 -712.773)" fill="#fd0"/>
        <path id="패스_3264" data-name="패스 3264" d="M1157.237,719.4h-16.286a1.076,1.076,0,0,1-1.077-1.077v-5.395a1.076,1.076,0,0,1,1.077-1.077h16.286a1.077,1.077,0,0,1,1.077,1.077v5.395A1.077,1.077,0,0,1,1157.237,719.4Zm-15.209-2.153h14.133V714h-14.133Z" transform="translate(-1139.874 -711.85)" fill="#656565"/>
      </g>
      <g id="그룹_3700" data-name="그룹 3700" transform="translate(0 27.314)">
        <path id="패스_3265" data-name="패스 3265" d="M1158.16,729.627h-16.286v-5.395h16.286Z" transform="translate(-1140.797 -723.155)" fill="#fff"/>
        <path id="패스_3266" data-name="패스 3266" d="M1157.237,729.781h-16.286a1.077,1.077,0,0,1-1.077-1.077v-5.4a1.077,1.077,0,0,1,1.077-1.077h16.286a1.077,1.077,0,0,1,1.077,1.077v5.4A1.077,1.077,0,0,1,1157.237,729.781Zm-15.209-2.153h14.133v-3.242h-14.133Z" transform="translate(-1139.874 -722.232)" fill="#656565"/>
      </g>
      <g id="그룹_3702" data-name="그룹 3702" transform="translate(0 32.709)">
        <rect id="사각형_2133" data-name="사각형 2133" width="16.286" height="5.395" rx="2" transform="translate(1.077 1.076)" fill="#fd0"/>
        <g id="그룹_3701" data-name="그룹 3701">
          <path id="패스_3267" data-name="패스 3267" d="M1156.161,739.8h-14.133a2.155,2.155,0,0,1-2.153-2.153v-3.241a2.155,2.155,0,0,1,2.153-2.153h14.133a2.155,2.155,0,0,1,2.153,2.153v3.241A2.155,2.155,0,0,1,1156.161,739.8Zm-14.133-5.394v3.241h14.133v-3.241Z" transform="translate(-1139.874 -732.254)" fill="#656565"/>
        </g>
      </g>
    </g>
    <g id="그룹_3711" data-name="그룹 3711" transform="translate(14.3 14.107)">
      <g id="그룹_3705" data-name="그룹 3705" transform="translate(0)">
        <rect id="사각형_2134" data-name="사각형 2134" width="15.926" height="5.275" rx="2" transform="translate(1.077 1.077)" fill="#fd0"/>
        <g id="그룹_3704" data-name="그룹 3704">
          <path id="패스_3268" data-name="패스 3268" d="M1137.326,705.128h-13.772a2.156,2.156,0,0,1-2.153-2.154v-3.122a2.155,2.155,0,0,1,2.153-2.153h13.772a2.155,2.155,0,0,1,2.153,2.153v3.122A2.156,2.156,0,0,1,1137.326,705.128Zm-13.772-5.275v3.122h13.772v-3.122Z" transform="translate(-1121.4 -697.699)" fill="#656565"/>
        </g>
      </g>
      <g id="그룹_3706" data-name="그룹 3706" transform="translate(0 5.554)">
        <path id="패스_3269" data-name="패스 3269" d="M1139.325,715.292H1123.4v-5.275h15.926Z" transform="translate(-1122.323 -708.94)" fill="#fff"/>
        <path id="패스_3270" data-name="패스 3270" d="M1138.4,715.445h-15.926a1.077,1.077,0,0,1-1.077-1.077v-5.276a1.077,1.077,0,0,1,1.077-1.077H1138.4a1.077,1.077,0,0,1,1.077,1.077v5.276A1.076,1.076,0,0,1,1138.4,715.445Zm-14.849-2.153h13.772v-3.122h-13.772Z" transform="translate(-1121.4 -708.016)" fill="#656565"/>
      </g>
      <g id="그룹_3707" data-name="그룹 3707" transform="translate(0 10.398)">
        <path id="패스_3271" data-name="패스 3271" d="M1139.325,724.289H1123.4v-5.275h15.926Z" transform="translate(-1122.323 -717.937)" fill="#fd0"/>
        <path id="패스_3272" data-name="패스 3272" d="M1138.4,724.442h-15.926a1.077,1.077,0,0,1-1.077-1.077v-5.275a1.077,1.077,0,0,1,1.077-1.077H1138.4a1.076,1.076,0,0,1,1.077,1.077v5.275A1.076,1.076,0,0,1,1138.4,724.442Zm-14.849-2.153h13.772v-3.121h-13.772Z" transform="translate(-1121.4 -717.014)" fill="#656565"/>
      </g>
      <g id="그룹_3708" data-name="그룹 3708" transform="translate(0 15.863)">
        <path id="패스_3273" data-name="패스 3273" d="M1139.325,734.441H1123.4v-5.275h15.926Z" transform="translate(-1122.323 -728.089)" fill="#fff"/>
        <path id="패스_3274" data-name="패스 3274" d="M1138.4,734.6h-15.926a1.077,1.077,0,0,1-1.077-1.077v-5.276a1.077,1.077,0,0,1,1.077-1.077H1138.4a1.076,1.076,0,0,1,1.077,1.077v5.276A1.077,1.077,0,0,1,1138.4,734.6Zm-14.849-2.153h13.772v-3.122h-13.772Z" transform="translate(-1121.4 -727.166)" fill="#656565"/>
      </g>
      <g id="그룹_3710" data-name="그룹 3710" transform="translate(0 21.139)">
        <rect id="사각형_2135" data-name="사각형 2135" width="15.926" height="5.275" rx="2" transform="translate(1.077 1.076)" fill="#fd0"/>
        <g id="그룹_3709" data-name="그룹 3709">
          <path id="패스_3275" data-name="패스 3275" d="M1137.326,744.395h-13.772a2.156,2.156,0,0,1-2.153-2.153v-3.122a2.155,2.155,0,0,1,2.153-2.153h13.772a2.156,2.156,0,0,1,2.153,2.153v3.122A2.156,2.156,0,0,1,1137.326,744.395Zm-13.772-5.275v3.122h13.772v-3.122Z" transform="translate(-1121.4 -736.966)" fill="#656565"/>
        </g>
      </g>
    </g>
    <g id="그룹_3718" data-name="그룹 3718" transform="translate(37.363 20.949)">
      <g id="그룹_3713" data-name="그룹 3713" transform="translate(0 0)">
        <rect id="사각형_2136" data-name="사각형 2136" width="15.926" height="5.275" rx="2" transform="translate(1.076 1.077)" fill="#fd0"/>
        <g id="그룹_3712" data-name="그룹 3712">
          <path id="패스_3276" data-name="패스 3276" d="M1180.165,717.837h-13.772a2.155,2.155,0,0,1-2.153-2.153v-3.121a2.155,2.155,0,0,1,2.153-2.153h13.772a2.155,2.155,0,0,1,2.153,2.153v3.121A2.155,2.155,0,0,1,1180.165,717.837Zm-13.772-5.275v3.121h13.772v-3.121Z" transform="translate(-1164.24 -710.409)" fill="#656565"/>
        </g>
      </g>
      <g id="그룹_3714" data-name="그룹 3714" transform="translate(0 5.554)">
        <path id="패스_3277" data-name="패스 3277" d="M1182.165,728H1166.24v-5.275h15.926Z" transform="translate(-1165.163 -721.649)" fill="#fff"/>
        <path id="패스_3278" data-name="패스 3278" d="M1181.242,728.155h-15.925a1.076,1.076,0,0,1-1.077-1.077V721.8a1.076,1.076,0,0,1,1.077-1.077h15.925a1.077,1.077,0,0,1,1.077,1.077v5.275A1.077,1.077,0,0,1,1181.242,728.155ZM1166.393,726h13.772v-3.122h-13.772Z" transform="translate(-1164.24 -720.726)" fill="#656565"/>
      </g>
      <g id="그룹_3715" data-name="그룹 3715" transform="translate(0 10.398)">
        <path id="패스_3279" data-name="패스 3279" d="M1182.165,737H1166.24v-5.276h15.926Z" transform="translate(-1165.163 -730.646)" fill="#fd0"/>
        <path id="패스_3280" data-name="패스 3280" d="M1181.242,737.151h-15.925a1.076,1.076,0,0,1-1.077-1.077V730.8a1.076,1.076,0,0,1,1.077-1.077h15.925a1.077,1.077,0,0,1,1.077,1.077v5.275A1.077,1.077,0,0,1,1181.242,737.151ZM1166.393,735h13.772v-3.121h-13.772Z" transform="translate(-1164.24 -729.723)" fill="#656565"/>
      </g>
      <g id="그룹_3717" data-name="그룹 3717" transform="translate(0 16.293)">
        <rect id="사각형_2137" data-name="사각형 2137" width="15.926" height="5.275" rx="2" transform="translate(1.076 1.076)" fill="#fff"/>
        <g id="그룹_3716" data-name="그룹 3716">
          <path id="패스_3281" data-name="패스 3281" d="M1180.165,748.1h-13.772a2.155,2.155,0,0,1-2.153-2.153v-3.122a2.155,2.155,0,0,1,2.153-2.153h13.772a2.155,2.155,0,0,1,2.153,2.153v3.122A2.155,2.155,0,0,1,1180.165,748.1Zm-13.772-5.275v3.122h13.772v-3.122Z" transform="translate(-1164.24 -740.675)" fill="#656565"/>
        </g>
      </g>
    </g>
  </g>
</svg>
