<svg xmlns="http://www.w3.org/2000/svg" width="16" height="16" viewBox="0 0 16 16">
  <g id="아코디언" transform="translate(-46 -568)">
    <g id="그룹_7512" data-name="그룹 7512" transform="translate(-34 -70)">
      <path id="사각형_3173_-_윤곽선" data-name="사각형 3173 - 윤곽선" d="M1,1V5H15V1H1M0,0H16V6H0Z" transform="translate(80 638)" fill="#424144"/>
      <rect id="사각형_3212" data-name="사각형 3212" width="16" height="6" transform="translate(80 643)" fill="#e8e8e8"/>
      <path id="사각형_3212_-_윤곽선" data-name="사각형 3212 - 윤곽선" d="M1,1V5H15V1H1M0,0H16V6H0Z" transform="translate(80 643)" fill="#424144"/>
      <path id="사각형_3213_-_윤곽선" data-name="사각형 3213 - 윤곽선" d="M1,1V5H15V1H1M0,0H16V6H0Z" transform="translate(80 648)" fill="#424144"/>
    </g>
    <g id="그룹_7513" data-name="그룹 7513" transform="translate(-77.086 -91.5)">
      <rect id="사각형_3206" data-name="사각형 3206" width="2" height="1" transform="translate(135.5 663.621) rotate(-135)" fill="#707070"/>
      <rect id="사각형_3208" data-name="사각형 3208" width="2" height="1" transform="translate(134.793 662.914) rotate(-45)" fill="#707070"/>
    </g>
    <g id="그룹_7515" data-name="그룹 7515" transform="translate(-77.086 -81.5)">
      <rect id="사각형_3206-2" data-name="사각형 3206" width="2" height="1" transform="translate(135.5 663.621) rotate(-135)" fill="#707070"/>
      <rect id="사각형_3208-2" data-name="사각형 3208" width="2" height="1" transform="translate(134.793 662.914) rotate(-45)" fill="#707070"/>
    </g>
    <rect id="사각형_3214" data-name="사각형 3214" width="6" height="1" transform="translate(48.768 570.561)" fill="#707070"/>
    <rect id="사각형_3216" data-name="사각형 3216" width="6" height="1" transform="translate(48.768 580.56)" fill="#707070"/>
  </g>
</svg>
