<svg xmlns="http://www.w3.org/2000/svg" width="16" height="15.59" viewBox="0 0 16 15.59">
  <path id="메세지" d="M111.509-847.437a.732.732,0,0,1-.524-.256.769.769,0,0,1-.249-.539V-849.8h10.322l.273.273v-7.463h1.6a.711.711,0,0,1,.518.256.791.791,0,0,1,.243.552v11.774l-3.028-3.028Zm-3.815-.727V-859.2a.778.778,0,0,1,.243-.539.711.711,0,0,1,.518-.256h10.7a.731.731,0,0,1,.531.249.769.769,0,0,1,.243.546v7.2a.778.778,0,0,1-.243.539.723.723,0,0,1-.531.256h-8.417Zm11.256-4.017v-6.843H108.669v8.579l1.64-1.736Zm-10.281,0v0Z" transform="translate(-107.694 859.999)" fill="#424144"/>
</svg>
