<svg xmlns="http://www.w3.org/2000/svg" width="16" height="10" viewBox="0 0 16 10">
  <g id="버튼" transform="translate(-923 -319)">
    <g id="Trigger" transform="translate(448 95)">
      <rect id="Trigger-2" data-name="Trigger" width="16" height="10" rx="2" transform="translate(475 224)" fill="#e8e8e8"/>
      <path id="Trigger_-_윤곽선" data-name="Trigger - 윤곽선" d="M2,1A1,1,0,0,0,1,2V8A1,1,0,0,0,2,9H14a1,1,0,0,0,1-1V2a1,1,0,0,0-1-1H2M2,0H14a2,2,0,0,1,2,2V8a2,2,0,0,1-2,2H2A2,2,0,0,1,0,8V2A2,2,0,0,1,2,0Z" transform="translate(475 224)" fill="#424144"/>
    </g>
    <path id="패스_6859" data-name="패스 6859" d="M.33,1.5H1.2V.9h.057a1.139,1.139,0,0,0,1.082.669C3.221,1.565,3.89.861,3.89-.378c0-1.26-.691-1.944-1.567-1.951a1.128,1.128,0,0,0-1.068.669H1.213V-3.54H.33ZM1.2-.393c-.007-.726.313-1.2.883-1.211.6.007.9.513.911,1.211C2.986.326,2.673.839,2.082.846,1.519.839,1.192.348,1.2-.393Zm5.269-1.88H5.727v-.911H4.844v.911H4.3v.684h.541V.519c-.007.7.506,1.032,1.168,1.04a3.634,3.634,0,0,0,.513-.043V.789a3.867,3.867,0,0,1-.4.014c-.221,0-.4-.071-.4-.441V-1.589h.741ZM8.034-.706a.78.78,0,0,1,.8-.869.707.707,0,0,1,.741.812V1.5h.883V-.905A1.254,1.254,0,0,0,9.174-2.329a1.133,1.133,0,0,0-1.125.7H7.992v-.641h-.84V1.5h.883Z" transform="translate(925.607 325.063)" fill="#424144"/>
  </g>
</svg>
