<svg xmlns="http://www.w3.org/2000/svg" width="16" height="14.152" viewBox="0 0 16 14.152">
  <g id="타이틀" transform="translate(-1112.688 -533.007)">
    <path id="wysiwyg_FILL0_wght300_GRAD0_opsz48" d="M141.358-805.847a1.306,1.306,0,0,1-.956-.4,1.306,1.306,0,0,1-.4-.956v-11.437a1.306,1.306,0,0,1,.4-.956,1.306,1.306,0,0,1,.956-.4h13.285a1.306,1.306,0,0,1,.956.4,1.306,1.306,0,0,1,.4.956V-807.2a1.306,1.306,0,0,1-.4.956,1.306,1.306,0,0,1-.956.4Zm0-1.068h13.285a.282.282,0,0,0,.208-.081.282.282,0,0,0,.081-.208v-9.844H141.069v9.844a.282.282,0,0,0,.081.208A.282.282,0,0,0,141.358-806.915Z" transform="translate(972.687 1353.006)" fill="#424144"/>
    <path id="html_FILL0_wght400_GRAD0_opsz48" d="M8.277-593.719v-4.9H6.263V-600h5.41v1.381H9.658v4.9Z" transform="translate(1108.752 1138)" fill="#707070"/>
    <path id="wysiwyg_FILL0_wght300_GRAD0_opsz48-2" data-name="wysiwyg_FILL0_wght300_GRAD0_opsz48" d="M148.3-808.642v-1.068h4v1.068Z" transform="translate(973.687 1350.23)" fill="#707070"/>
    <path id="wysiwyg_FILL0_wght300_GRAD0_opsz48-3" data-name="wysiwyg_FILL0_wght300_GRAD0_opsz48" d="M148.3-808.642v-1.068h4v1.068Z" transform="translate(973.687 1352.751)" fill="#707070"/>
    <path id="wysiwyg_FILL0_wght300_GRAD0_opsz48-4" data-name="wysiwyg_FILL0_wght300_GRAD0_opsz48" d="M148.3-808.642v-1.068h4v1.068Z" transform="translate(973.687 1347.709)" fill="#707070"/>
  </g>
</svg>
