<svg xmlns="http://www.w3.org/2000/svg" width="16" height="13.662" viewBox="0 0 16 13.662">
  <g id="트리" transform="translate(-920 -283.892)">
    <path id="사각형_4558_-_윤곽선" data-name="사각형 4558 - 윤곽선" d="M1,1V2H2V1H1M0,0H3V3H0Z" transform="translate(924 293.5)" fill="#424144"/>
    <path id="사각형_4559_-_윤곽선" data-name="사각형 4559 - 윤곽선" d="M1,1V2H2V1H1M0,0H3V3H0Z" transform="translate(920 285)" fill="#424144"/>
    <path id="패스_6861" data-name="패스 6861" d="M.5,5h-1V4h1Zm0-2h-1V2h1Zm0-2h-1V0h1Z" transform="translate(921.5 288.5)" fill="#424144"/>
    <path id="패스_6860" data-name="패스 6860" d="M3,.5H2v-1H3ZM1,.5H0v-1H1Z" transform="translate(921 295)" fill="#424144"/>
    <path id="folder_open_FILL0_wght700_GRAD0_opsz48" d="M55.831-819.892a.8.8,0,0,1-.584-.247.8.8,0,0,1-.247-.584v-4.438a.807.807,0,0,1,.247-.594.8.8,0,0,1,.584-.245h2.307l.628.636h2.917a.806.806,0,0,1,.594.247.8.8,0,0,1,.245.584h-4.11l-.628-.628H55.831v4.473L56.706-824H63l-.875,3.306a1.117,1.117,0,0,1-.393.623,1.246,1.246,0,0,1-.72.181Zm.893-.831h4.535l.592-2.44H57.316Zm0,0,.592-2.44Zm-.893-3.81v0Z" transform="translate(869.5 1109.892)" fill="#424144"/>
    <path id="folder_open_FILL0_wght700_GRAD0_opsz48-2" data-name="folder_open_FILL0_wght700_GRAD0_opsz48" d="M55.831-819.892a.8.8,0,0,1-.584-.247.8.8,0,0,1-.247-.584v-4.438a.807.807,0,0,1,.247-.594.8.8,0,0,1,.584-.245h2.307l.628.636h2.917a.806.806,0,0,1,.594.247.8.8,0,0,1,.245.584h-4.11l-.628-.628H55.831v4.473L56.706-824H63l-.875,3.306a1.117,1.117,0,0,1-.393.623,1.246,1.246,0,0,1-.72.181Zm.893-.831h4.535l.592-2.44H57.316Zm0,0,.592-2.44Zm-.893-3.81v0Z" transform="translate(873 1117.446)" fill="#424144"/>
  </g>
</svg>
