<svg xmlns="http://www.w3.org/2000/svg" width="16" height="16" viewBox="0 0 16 16">
  <g id="btn_search" transform="translate(-0.457)">
    <rect id="boundary" width="16" height="16" transform="translate(0.457)" fill="rgba(116,202,0,0)" opacity="0.3"/>
    <g id="iCon_search" transform="translate(1 1)">
      <path id="타원_435_-_윤곽선" data-name="타원 435 - 윤곽선" d="M6,1.2A4.8,4.8,0,1,0,10.8,6,4.805,4.805,0,0,0,6,1.2M6,0A6,6,0,1,1,0,6,6,6,0,0,1,6,0Z" transform="translate(0.457)" fill="#c4cdd5"/>
      <path id="사각형_4692" data-name="사각형 4692" d="M.6,0H.7a.551.551,0,0,1,.6.482V5.3a.551.551,0,0,1-.6.482H.6A.551.551,0,0,1,0,5.3V.482A.551.551,0,0,1,.6,0Z" transform="translate(14.457 13.081) rotate(135)" fill="#c4cdd5"/>
    </g>
  </g>
</svg>
