<svg xmlns="http://www.w3.org/2000/svg" width="16" height="16" viewBox="0 0 16 16">
  <g id="ico_download" transform="translate(-0.224)">
    <rect id="boundary" width="16" height="16" transform="translate(0.224)" fill="rgba(116,202,0,0)" opacity="0.3"/>
    <g id="Icon_feather-download" data-name="Icon feather-download" transform="translate(1.224 1)">
      <path id="패스_78" data-name="패스 78" d="M14.9,26.487H5.1A2.079,2.079,0,0,1,3,24.429V21.686a.7.7,0,0,1,1.4,0v2.743a.693.693,0,0,0,.7.686h9.8a.693.693,0,0,0,.7-.686V21.686a.7.7,0,0,1,1.4,0v2.743A2.079,2.079,0,0,1,14.9,26.487Z" transform="translate(-3 -12.487)" fill="#a7b1bb"/>
      <path id="패스_79" data-name="패스 79" d="M13.257,18.3a.722.722,0,0,1-.5-.2L9.208,14.671a.67.67,0,0,1,0-.97.727.727,0,0,1,1,0l3.045,2.945L16.3,13.7a.727.727,0,0,1,1,0,.67.67,0,0,1,0,.97L13.759,18.1a.722.722,0,0,1-.5.2Z" transform="translate(-6.257 -8.547)" fill="#a7b1bb"/>
      <path id="패스_80" data-name="패스 80" d="M17.186,12.6a.686.686,0,0,1-.686-.686V3.686a.686.686,0,1,1,1.372,0v8.23A.686.686,0,0,1,17.186,12.6Z" transform="translate(-10.186 -3)" fill="#a7b1bb"/>
    </g>
  </g>
</svg>
