<svg xmlns="http://www.w3.org/2000/svg" width="16" height="16" viewBox="0 0 16 16">
  <g id="ico_calendar" transform="translate(-280 -410)">
    <rect id="boundary" width="16" height="16" transform="translate(280 410)" fill="#c4cdd5" opacity="0"/>
    <path id="calendar_month_FILL0_wght400_GRAD0_opsz24" d="M121.333-866a1.253,1.253,0,0,1-.942-.411A1.383,1.383,0,0,1,120-867.4v-9.8a1.383,1.383,0,0,1,.391-.989,1.254,1.254,0,0,1,.942-.411H122V-880h1.333v1.4h5.333V-880H130v1.4h.667a1.254,1.254,0,0,1,.942.411,1.383,1.383,0,0,1,.391.989v9.8a1.383,1.383,0,0,1-.391.989,1.254,1.254,0,0,1-.942.411Zm0-1.4h9.333v-7h-9.333Zm0-8.4h9.333v-1.4h-9.333Zm0,0ZM126-871.6a.629.629,0,0,1-.476-.2.7.7,0,0,1-.19-.5.7.7,0,0,1,.19-.5A.629.629,0,0,1,126-873a.629.629,0,0,1,.476.2.7.7,0,0,1,.19.5.7.7,0,0,1-.19.5.628.628,0,0,1-.476.2Zm-2.667,0a.629.629,0,0,1-.476-.2.7.7,0,0,1-.19-.5.7.7,0,0,1,.19-.5.629.629,0,0,1,.476-.2.629.629,0,0,1,.476.2.7.7,0,0,1,.19.5.7.7,0,0,1-.19.5.628.628,0,0,1-.476.2Zm5.333,0a.629.629,0,0,1-.476-.2.7.7,0,0,1-.19-.5.7.7,0,0,1,.19-.5.629.629,0,0,1,.476-.2.629.629,0,0,1,.476.2.7.7,0,0,1,.19.5.7.7,0,0,1-.191.5.628.628,0,0,1-.476.2ZM126-868.8a.629.629,0,0,1-.476-.2.7.7,0,0,1-.19-.5.7.7,0,0,1,.19-.5.629.629,0,0,1,.476-.2.629.629,0,0,1,.476.2.7.7,0,0,1,.19.5.7.7,0,0,1-.19.5.629.629,0,0,1-.476.2Zm-2.667,0a.629.629,0,0,1-.476-.2.7.7,0,0,1-.19-.5.7.7,0,0,1,.19-.5.629.629,0,0,1,.476-.2.629.629,0,0,1,.476.2.7.7,0,0,1,.19.5.7.7,0,0,1-.19.5A.629.629,0,0,1,123.333-868.8Zm5.333,0a.629.629,0,0,1-.476-.2.7.7,0,0,1-.19-.5.7.7,0,0,1,.19-.5.629.629,0,0,1,.476-.2.629.629,0,0,1,.476.2.7.7,0,0,1,.191.5.7.7,0,0,1-.191.5A.629.629,0,0,1,128.666-868.8Z" transform="translate(162 1291)" fill="#a7b1bb"/>
  </g>
</svg>
