<svg xmlns="http://www.w3.org/2000/svg" width="12" height="12" viewBox="0 0 12 12">
  <g id="ico_spinner_down_dis" transform="translate(-430 -17)">
    <rect id="boundary" width="12" height="12" transform="translate(430 17)" fill="#c4cdd5" opacity="0"/>
    <path id="chevron-down-outline" d="M93,166a.7.7,0,0,1-.505-.22l-4.286-4.5a.777.777,0,0,1,0-1.061.69.69,0,0,1,1.01,0L93,164.189l3.781-3.97a.69.69,0,0,1,1.01,0,.777.777,0,0,1,0,1.061l-4.286,4.5A.7.7,0,0,1,93,166Z" transform="translate(343 -140)" fill="#c4cdd5"/>
  </g>
</svg>
