<svg id="iCon" xmlns="http://www.w3.org/2000/svg" width="15" height="15" viewBox="0 0 15 15">
  <path id="info_FILL1_wght400_GRAD0_opsz24" d="M86.75-868.75h1.5v-4.5h-1.5Zm.75-6a.726.726,0,0,0,.534-.216.726.726,0,0,0,.216-.534.726.726,0,0,0-.216-.534.726.726,0,0,0-.534-.216.726.726,0,0,0-.534.216.726.726,0,0,0-.216.534.726.726,0,0,0,.216.534A.726.726,0,0,0,87.5-874.75Zm0,9.75a7.3,7.3,0,0,1-2.925-.591,7.574,7.574,0,0,1-2.381-1.6,7.574,7.574,0,0,1-1.6-2.381A7.3,7.3,0,0,1,80-872.5a7.3,7.3,0,0,1,.591-2.925,7.574,7.574,0,0,1,1.6-2.381,7.574,7.574,0,0,1,2.381-1.6A7.3,7.3,0,0,1,87.5-880a7.3,7.3,0,0,1,2.925.591,7.574,7.574,0,0,1,2.381,1.6,7.574,7.574,0,0,1,1.6,2.381A7.3,7.3,0,0,1,95-872.5a7.3,7.3,0,0,1-.591,2.925,7.574,7.574,0,0,1-1.6,2.381,7.574,7.574,0,0,1-2.381,1.6A7.3,7.3,0,0,1,87.5-865Z" transform="translate(-80 880)" fill="#1976d2"/>
</svg>
