<svg xmlns="http://www.w3.org/2000/svg" width="16" height="16" viewBox="0 0 16 16"><g transform="translate(-2 -0.5)"><rect width="16" height="16" transform="translate(2 0.5)" fill="rgba(255,255,255,0)"/><path d="M6.333,1.5h4.889a.6.6,0,0,1,.432.186L15.321,5.5a.65.65,0,0,1,.179.45v7.636A1.874,1.874,0,0,1,13.667,15.5H6.333A1.874,1.874,0,0,1,4.5,13.591V3.409A1.874,1.874,0,0,1,6.333,1.5Zm4.636,1.273H6.333a.625.625,0,0,0-.611.636V13.591a.625.625,0,0,0,.611.636h7.333a.625.625,0,0,0,.611-.636V6.218Z" transform="translate(0 0)" fill="#dce0e4"/><path d="M24.446,7.153h-4.24a.707.707,0,0,1-.707-.707V2.207a.707.707,0,0,1,1.413,0V5.74h3.533a.707.707,0,1,1,0,1.413Z" transform="translate(-9.653 0)" fill="#dce0e4"/><path d="M15.312,19.413H11.035a.734.734,0,0,1,0-1.413h4.278a.734.734,0,0,1,0,1.413Z" transform="translate(-3.174 -9.577)" fill="#dce0e4"/><path d="M15.312,25.413H11.035a.734.734,0,0,1,0-1.413h4.278a.734.734,0,0,1,0,1.413Z" transform="translate(-3.174 -13.06)" fill="#dce0e4"/></g></svg>