<svg xmlns="http://www.w3.org/2000/svg" width="16" height="16" viewBox="0 0 16 16">
  <g id="btn_guide" transform="translate(1.072)">
    <rect id="boundary" width="16" height="16" transform="translate(-1.072)" fill="rgba(116,202,0,0)" opacity="0.3"/>
    <g id="그룹_7763" data-name="그룹 7763" transform="translate(0 1)">
      <path id="사각형_2805" data-name="사각형 2805" d="M7,1a6,6,0,1,0,6,6A6.007,6.007,0,0,0,7,1M7,0A7,7,0,1,1,0,7,7,7,0,0,1,7,0Z" transform="translate(-0.072)" fill="#c4cdd5"/>
      <path id="help_FILL1_wght400_GRAD0_opsz24" d="M87.461-868.961a.789.789,0,0,0,.58-.237.789.789,0,0,0,.237-.579.789.789,0,0,0-.237-.58.789.789,0,0,0-.58-.237.789.789,0,0,0-.58.237.788.788,0,0,0-.237.58.789.789,0,0,0,.237.58.789.789,0,0,0,.58.236Zm-.588-2.515h1.208a2.377,2.377,0,0,1,.122-.849,2.86,2.86,0,0,1,.694-.849,4.888,4.888,0,0,0,.67-.808,1.678,1.678,0,0,0,.245-.922,1.635,1.635,0,0,0-.67-1.4,2.608,2.608,0,0,0-1.584-.49,2.26,2.26,0,0,0-1.51.491,2.592,2.592,0,0,0-.808,1.176l1.078.424a1.776,1.776,0,0,1,.367-.637,1.072,1.072,0,0,1,.873-.343,1.01,1.01,0,0,1,.784.286.915.915,0,0,1,.262.629,1.063,1.063,0,0,1-.2.613,2.625,2.625,0,0,1-.49.531,4.065,4.065,0,0,0-.881.964,2.972,2.972,0,0,0-.163,1.192Z" transform="translate(-80.668 879.74)" fill="#c4cdd5"/>
    </g>
  </g>
</svg>
