<svg id="iCon" xmlns="http://www.w3.org/2000/svg" width="15" height="15" viewBox="0 0 15 15">
  <g id="_03_success" data-name="03_success">
    <path id="check_circle_FILL1_wght400_GRAD0_opsz24" d="M86.45-869.05l5.288-5.288-1.05-1.05L86.45-871.15l-2.137-2.137-1.05,1.05ZM87.5-865a7.3,7.3,0,0,1-2.925-.591,7.574,7.574,0,0,1-2.381-1.6,7.574,7.574,0,0,1-1.6-2.381A7.3,7.3,0,0,1,80-872.5a7.3,7.3,0,0,1,.591-2.925,7.574,7.574,0,0,1,1.6-2.381,7.574,7.574,0,0,1,2.381-1.6A7.3,7.3,0,0,1,87.5-880a7.3,7.3,0,0,1,2.925.591,7.574,7.574,0,0,1,2.381,1.6,7.574,7.574,0,0,1,1.6,2.381A7.3,7.3,0,0,1,95-872.5a7.3,7.3,0,0,1-.591,2.925,7.574,7.574,0,0,1-1.6,2.381,7.574,7.574,0,0,1-2.381,1.6A7.3,7.3,0,0,1,87.5-865Z" transform="translate(-80 880)" fill="#4caf50"/>
  </g>
</svg>
