<svg xmlns="http://www.w3.org/2000/svg" width="16" height="16" viewBox="0 0 16 16">
  <g id="ico_save__dis" transform="translate(-0.457 14)">
    <rect id="boundary" width="16" height="16" transform="translate(0.457 -14)" fill="rgba(116,202,0,0)" opacity="0.3"/>
    <g id="iCon_search" transform="translate(2 17)">
      <path id="save" d="M13.855,4.645l-2.5-2.5A.5.5,0,0,0,11,2H3A1,1,0,0,0,2,3V13a1,1,0,0,0,1,1H13a1,1,0,0,0,1-1V5A.5.5,0,0,0,13.855,4.645ZM6,3h4V5H6Zm4,10H6V9h4Zm1,0V9a1,1,0,0,0-1-1H6A1,1,0,0,0,5,9v4H3V3H5V5A1,1,0,0,0,6,6h4a1,1,0,0,0,1-1V3.2l2,2V13Z" transform="translate(-1.543 -31)" fill="#c4cdd5"/>
    </g>
  </g>
</svg>
