<svg xmlns="http://www.w3.org/2000/svg" width="16" height="16" viewBox="0 0 16 16"><g transform="translate(-572 -410)"><rect width="16" height="16" transform="translate(572 410)" fill="#ff9600" opacity="0"/><path d="M5.575,14.39a4.689,4.689,0,0,1-3.234-1.268,4.181,4.181,0,0,1,0-6.134l6-5.692a3.4,3.4,0,0,1,4.62,0,2.99,2.99,0,0,1,0,4.381L6.954,11.369a2.036,2.036,0,0,1-2.771,0,1.792,1.792,0,0,1,0-2.629L9.727,3.488a.678.678,0,0,1,.924,0,.6.6,0,0,1,0,.876L5.106,9.617a.6.6,0,0,0,0,.877.679.679,0,0,0,.925,0L12.039,4.8a1.794,1.794,0,0,0,0-2.629,2.039,2.039,0,0,0-2.773,0l-6,5.692a2.987,2.987,0,0,0,0,4.382,3.4,3.4,0,0,0,4.621,0l6-5.692a.678.678,0,0,1,.924,0,.6.6,0,0,1,0,.876l-6,5.692A4.689,4.689,0,0,1,5.575,14.39Z" transform="translate(571.998 410.61)" fill="#a7b1bb"/></g></svg>