<svg id="iCon" xmlns="http://www.w3.org/2000/svg" width="17.368" height="15" viewBox="0 0 17.368 15">
  <g id="_04_warning" data-name="04_warning">
    <path id="warning_FILL1_wght400_GRAD0_opsz24" d="M40-865l8.684-15,8.684,15Zm8.684-2.368a.764.764,0,0,0,.563-.227.764.764,0,0,0,.227-.562.764.764,0,0,0-.227-.563.764.764,0,0,0-.562-.227.764.764,0,0,0-.563.227.764.764,0,0,0-.227.563.764.764,0,0,0,.227.562A.764.764,0,0,0,48.684-867.368Zm-.789-2.368h1.579v-3.947H47.895Z" transform="translate(-40 880)" fill="#ff9800"/>
  </g>
</svg>
