<svg xmlns="http://www.w3.org/2000/svg" width="16" height="16" viewBox="0 0 16 16">
  <g id="iCon" transform="translate(-767 -517)">
    <rect id="boundary" width="16" height="16" transform="translate(767 517)" fill="#74ca00" opacity="0"/>
    <path id="contract_delete_FILL0_wght300_GRAD0_opsz24" d="M153.285-846.006l-1.816,1.777-.9-.887,1.8-1.789-1.8-1.789.9-.887,1.816,1.777,1.816-1.777.9.887-1.8,1.789,1.8,1.789-.9.887ZM142.137-844a2.077,2.077,0,0,1-1.516-.611A2.017,2.017,0,0,1,140-846.1v-2.429h2.563V-860h11.961v8.283a3.773,3.773,0,0,0-.628-.144,4.664,4.664,0,0,0-.654-.045v-6.831h-9.4v10.2h4.645a4.357,4.357,0,0,0-.171.615,4.39,4.39,0,0,0-.079.649h-6.958v1.166a.809.809,0,0,0,.246.6.833.833,0,0,0,.609.242h6.354a3.435,3.435,0,0,0,.308.674,4.4,4.4,0,0,0,.421.589Zm2.727-10.786v-1.263h7.361v1.263Zm0,2.429v-1.263h7.361v1.263Zm3.626,7.093h0Z" transform="translate(626.999 1376.999)" fill="#a7b1bb"/>
  </g>
</svg>
