<svg xmlns="http://www.w3.org/2000/svg" width="20" height="20" viewBox="0 0 20 20">
  <g id="Icon_feather-file-text" data-name="Icon feather-file-text" transform="translate(-0.821 1)">
    <g id="사각형_4741" data-name="사각형 4741" transform="translate(0.821 -1)" fill="#fff" stroke="#dce0e4" stroke-width="1.3" opacity="0">
      <rect width="20" height="20" rx="4" stroke="none"/>
      <rect x="0.65" y="0.65" width="18.7" height="18.7" rx="3.35" fill="none"/>
    </g>
    <path id="패스_6957" data-name="패스 6957" d="M6.545,1.5H12a.682.682,0,0,1,.482.2l4.091,4.091a.682.682,0,0,1,.2.482v8.182A2.048,2.048,0,0,1,14.727,16.5H6.545A2.048,2.048,0,0,1,4.5,14.455V3.545A2.048,2.048,0,0,1,6.545,1.5Zm5.172,1.364H6.545a.683.683,0,0,0-.682.682V14.455a.683.683,0,0,0,.682.682h8.182a.683.683,0,0,0,.682-.682v-7.9Z" transform="translate(0 0)" fill="#dce0e4"/>
    <path id="패스_6958" data-name="패스 6958" d="M24.446,7.153h-4.24a.707.707,0,0,1-.707-.707V2.207a.707.707,0,0,1,1.413,0V5.74h3.533a.707.707,0,1,1,0,1.413Z" transform="translate(-8.38 0)" fill="#dce0e4"/>
    <path id="패스_6959" data-name="패스 6959" d="M16.458,19.413h-5.3a.708.708,0,0,1,0-1.413h5.3a.708.708,0,0,1,0,1.413Z" transform="translate(-3.174 -9.027)" fill="#dce0e4"/>
    <path id="패스_6960" data-name="패스 6960" d="M16.458,25.413h-5.3a.708.708,0,0,1,0-1.413h5.3a.708.708,0,0,1,0,1.413Z" transform="translate(-3.174 -12.31)" fill="#dce0e4"/>
  </g>
</svg>
