<svg xmlns="http://www.w3.org/2000/svg" width="16" height="16" viewBox="0 0 16 16">
  <g id="ico_copy" transform="translate(0.592 1)">
    <rect id="boundary" width="16" height="16" transform="translate(-0.592 -1)" fill="rgba(116,202,0,0)" opacity="0.3"/>
    <g id="iCon_copy" transform="translate(0.408 -0.428)">
      <path id="빼기_16" data-name="빼기 16" d="M-1429.571,2031.145h-1.143a2.286,2.286,0,0,1-2.286-2.286v-4.573a2.286,2.286,0,0,1,2.286-2.286h4.572a2.286,2.286,0,0,1,2.286,2.286v1.143h-1.372v-1.143a.915.915,0,0,0-.915-.914h-4.572a.915.915,0,0,0-.915.914v4.573a.915.915,0,0,0,.915.915h1.143Z" transform="translate(1433 -2021.572)" fill="#a7b1bb"/>
      <path id="사각형_4701" data-name="사각형 4701" d="M2,1.2a.8.8,0,0,0-.8.8V7a.8.8,0,0,0,.8.8H7A.8.8,0,0,0,7.8,7V2A.8.8,0,0,0,7,1.2H2M2,0H7A2,2,0,0,1,9,2V7A2,2,0,0,1,7,9H2A2,2,0,0,1,0,7V2A2,2,0,0,1,2,0Z" transform="translate(5 5.428)" fill="#a7b1bb"/>
    </g>
  </g>
</svg>
