<svg xmlns="http://www.w3.org/2000/svg" width="20" height="20" viewBox="0 0 20 20">
  <g id="iCon_U" transform="translate(0.25)">
    <rect id="사각형_2810" data-name="사각형 2810" width="20" height="20" rx="3" transform="translate(-0.25)" fill="#14d841"/>
    <path id="pen-solid" d="M7.1.917l-.946.946L8.694,4.4l.946-.946a1.251,1.251,0,0,0,0-1.77L8.87.917a1.251,1.251,0,0,0-1.77,0ZM5.71,2.3,1.153,6.864A1.734,1.734,0,0,0,.719,7.6L.026,9.948a.469.469,0,0,0,.581.585L2.959,9.84a1.734,1.734,0,0,0,.731-.434l4.562-4.56Z" transform="translate(4.993 4.45)" fill="#fff"/>
  </g>
</svg>
