<svg xmlns="http://www.w3.org/2000/svg" width="16" height="16" viewBox="0 0 16 16">
  <g id="ico_link_dis" transform="translate(-337 -11)">
    <rect id="boundary" width="16" height="16" transform="translate(337 11)" fill="#ff9600" opacity="0"/>
    <path id="교차_1" data-name="교차 1" d="M3.667,5V1.333H0V0H4.167A.833.833,0,0,1,5,.833V5Z" transform="translate(346 13)" fill="#c4cdd5"/>
    <path id="빼기_17" data-name="빼기 17" d="M-783.714,931h-8.572A1.716,1.716,0,0,1-794,929.285v-8.571A1.716,1.716,0,0,1-792.286,919h3.428v1.371h-3.428a.343.343,0,0,0-.343.343v8.571a.343.343,0,0,0,.343.343h8.572a.344.344,0,0,0,.343-.343v-3.428H-782v3.428A1.716,1.716,0,0,1-783.714,931Z" transform="translate(1133 -906)" fill="#c4cdd5"/>
    <rect id="사각형_4719" data-name="사각형 4719" width="1.407" height="9.557" rx="0.704" transform="translate(349.877 13.156) rotate(45)" fill="#c4cdd5"/>
  </g>
</svg>
