<svg xmlns="http://www.w3.org/2000/svg" width="15.998" height="15.998" viewBox="0 0 15.998 15.998">
  <g id="화면시작" transform="translate(-921.687 -102.999)">
    <g id="그룹_7587" data-name="그룹 7587" transform="translate(-77.786 -182.008)">
      <path id="빼기_14" data-name="빼기 14" d="M14.641,16H1.358A1.311,1.311,0,0,1,.4,15.6,1.307,1.307,0,0,1,0,14.64V1.356A1.311,1.311,0,0,1,.4.4,1.314,1.314,0,0,1,1.358,0H14.641A1.314,1.314,0,0,1,15.6.4a1.311,1.311,0,0,1,.4.956V14.64A1.374,1.374,0,0,1,14.641,16ZM1.068,3.566V14.64a.277.277,0,0,0,.09.2.278.278,0,0,0,.2.091H14.641a.311.311,0,0,0,.29-.29V3.566ZM13.6,1.379a.462.462,0,1,0,.463.462A.462.462,0,0,0,13.6,1.379Zm-1.849,0a.462.462,0,1,0,.463.462A.463.463,0,0,0,11.75,1.379Zm-1.849,0a.462.462,0,1,0,.463.462A.462.462,0,0,0,9.9,1.379Z" transform="translate(999.472 285.008)" fill="#424144"/>
    </g>
    <path id="사각형_4558" data-name="사각형 4558" d="M1,1V8h9.5V1H1M0,0H11.5V9H0Z" transform="translate(924 108)" fill="#d4d4d4"/>
  </g>
</svg>
