<svg xmlns="http://www.w3.org/2000/svg" width="16" height="16" viewBox="0 0 16 16">
  <path id="입출력테이블" d="M145.123-804a1.306,1.306,0,0,1-.956-.4,1.305,1.305,0,0,1-.4-.956v-9.52a1.306,1.306,0,0,1,.4-.956,1.306,1.306,0,0,1,.956-.4h9.52a1.306,1.306,0,0,1,.956.4,1.306,1.306,0,0,1,.4.956v9.52a1.305,1.305,0,0,1-.4.956,1.306,1.306,0,0,1-.956.4Zm-.29-8.529h10.1v-2.349a.282.282,0,0,0-.081-.208.282.282,0,0,0-.208-.081h-9.52a.282.282,0,0,0-.208.081.282.282,0,0,0-.081.208Zm3.707,3.754h2.686v-2.686H148.54Zm0,3.707h2.686v-2.639H148.54Zm-3.707-3.707h2.639v-2.686h-2.639Zm7.461,0h2.639v-2.686h-2.639Zm-7.171,3.707h2.349v-2.639h-2.639v2.349a.282.282,0,0,0,.081.208A.282.282,0,0,0,145.123-805.067Zm7.171,0h2.349a.282.282,0,0,0,.208-.081.282.282,0,0,0,.081-.208v-2.349h-2.639Zm-10.936-2.7a1.306,1.306,0,0,1-.956-.4,1.306,1.306,0,0,1-.4-.956v-9.52a1.306,1.306,0,0,1,.4-.956,1.306,1.306,0,0,1,.956-.4h9.52a1.306,1.306,0,0,1,.956.4,1.306,1.306,0,0,1,.4.956V-817h-1.068v-1.638a.282.282,0,0,0-.081-.208.282.282,0,0,0-.208-.081h-9.52a.282.282,0,0,0-.208.081.282.282,0,0,0-.081.208v9.52a.282.282,0,0,0,.081.208.282.282,0,0,0,.208.081H143v1.068Z" transform="translate(-140.001 819.999)" fill="#424144"/>
</svg>
