<svg xmlns="http://www.w3.org/2000/svg" width="26" height="26" viewBox="0 0 26 26">
  <g id="알람_on_아이콘" data-name="알람_on 아이콘" transform="translate(-329 -15)">
    <rect id="사각형_3234" data-name="사각형 3234" width="26" height="26" transform="translate(329 15)" fill="rgba(255,255,255,0)"/>
    <g id="그룹_5525" data-name="그룹 5525" transform="translate(332.894 18)">
      <path id="패스_455" data-name="패스 455" d="M19.274,16.457H2.908a.917.917,0,0,1-.887-.652A.892.892,0,0,1,2.4,14.8a4.613,4.613,0,0,0,1.148-1.522A12.769,12.769,0,0,0,4.726,7.365a6.365,6.365,0,0,1,12.729,0,12.769,12.769,0,0,0,1.181,5.908A4.614,4.614,0,0,0,19.785,14.8a.892.892,0,0,1,.376,1.01A.917.917,0,0,1,19.274,16.457ZM4.862,14.639H17.32q-.1-.17-.208-.36a14.417,14.417,0,0,1-1.475-6.914,4.546,4.546,0,1,0-9.092,0A14.417,14.417,0,0,1,5.07,14.278Q4.966,14.469,4.862,14.639Z" transform="translate(-1.985 -1)" fill="#2a2a2a"/>
      <path id="패스_456" data-name="패스 456" d="M11.752,22.724a2.736,2.736,0,0,1-2.359-1.359.909.909,0,0,1,1.573-.912.909.909,0,0,0,1.573,0,.909.909,0,0,1,1.573.912A2.736,2.736,0,0,1,11.752,22.724Z" transform="translate(-2.646 -2.725)" fill="#2a2a2a"/>
    </g>
    <circle id="타원_415" data-name="타원 415" cx="3" cy="3" r="3" transform="translate(345 15)" fill="#ff725d"/>
  </g>
</svg>
