<svg id="settings" xmlns="http://www.w3.org/2000/svg" width="24" height="24" viewBox="0 0 24 24">
  <rect id="사각형_1872" data-name="사각형 1872" width="24" height="24" fill="rgba(255,155,155,0)"/>
  <path id="타원_176" data-name="타원 176" d="M2-1A3,3,0,1,1-1,2,3,3,0,0,1,2-1ZM2,3.5A1.5,1.5,0,1,0,.5,2,1.5,1.5,0,0,0,2,3.5Z" transform="translate(10 10)" fill="#2a2a2a"/>
  <path id="패스_651" data-name="패스 651" d="M9.06,18a2.253,2.253,0,0,1-2.25-2.25v-.057a.485.485,0,0,0-.319-.439l-.044-.018a.487.487,0,0,0-.535.1l-.041.041a2.251,2.251,0,1,1-3.183-3.183l.041-.041a.485.485,0,0,0,.1-.535l0-.007a.487.487,0,0,0-.446-.3H2.25a2.25,2.25,0,1,1,0-4.5h.057a.485.485,0,0,0,.439-.319q.008-.022.018-.044a.485.485,0,0,0-.1-.535L2.627,5.87A2.251,2.251,0,1,1,5.811,2.687l.041.041a.487.487,0,0,0,.535.1.75.75,0,0,1,.149-.048.487.487,0,0,0,.214-.4V2.25a2.25,2.25,0,0,1,4.5,0v.067a.486.486,0,0,0,.3.443l.007,0a.487.487,0,0,0,.535-.1l.041-.041a2.251,2.251,0,1,1,3.183,3.183l-.041.041a.485.485,0,0,0-.1.535.75.75,0,0,1,.048.149.487.487,0,0,0,.4.214h.125a2.25,2.25,0,1,1,0,4.5h-.068a.486.486,0,0,0-.443.3l0,.007a.485.485,0,0,0,.1.535l.041.041a2.251,2.251,0,1,1-3.183,3.183l-.041-.041a.487.487,0,0,0-.535-.1l-.007,0a.487.487,0,0,0-.3.446v.125A2.253,2.253,0,0,1,9.06,18ZM7.031,13.854A1.976,1.976,0,0,1,8.31,15.665q0,.009,0,.018v.067a.75.75,0,0,0,1.5,0v-.128A2,2,0,0,1,13.2,14.2l.006.006.045.045a.751.751,0,1,0,1.062-1.062l-.045-.045-.006-.006A2,2,0,0,1,15.68,9.75h.07a.75.75,0,1,0,0-1.5h-.128a1.987,1.987,0,0,1-1.822-1.2.75.75,0,0,1-.054-.2A1.977,1.977,0,0,1,14.2,4.8l.006-.006.045-.045a.751.751,0,1,0-1.062-1.062l-.045.045-.006.006A2,2,0,0,1,9.75,2.32V2.25a.75.75,0,0,0-1.5,0v.127A1.987,1.987,0,0,1,7.045,4.2a.75.75,0,0,1-.2.054A1.988,1.988,0,0,1,4.8,3.8l-.006-.006L4.75,3.748A.751.751,0,1,0,3.688,4.809l.045.045.006.006a1.978,1.978,0,0,1,.407,2.171A1.976,1.976,0,0,1,2.335,8.31H2.25a.75.75,0,1,0,0,1.5h.127A2,2,0,0,1,3.8,13.2l-.006.006-.045.045a.751.751,0,1,0,1.062,1.062l.045-.045.006-.006a1.987,1.987,0,0,1,2.171-.407Z" transform="translate(3 3)" fill="#2a2a2a"/>
</svg>
