<svg xmlns="http://www.w3.org/2000/svg" width="26" height="26" viewBox="0 0 26 26">
  <g id="챗봇아이콘" transform="translate(-291 -15)">
    <rect id="사각형_3233" data-name="사각형 3233" width="26" height="26" transform="translate(291 15)" fill="rgba(255,255,255,0)"/>
    <path id="smart_toy_FILL0_wght400_GRAD0_opsz48" d="M5.057,18.4A3.025,3.025,0,0,1,2,15.343a3.025,3.025,0,0,1,3.057-3.057V8.771A1.758,1.758,0,0,1,6.771,7.057h4.743A3.025,3.025,0,0,1,14.571,4a3.025,3.025,0,0,1,3.057,3.057h4.743a1.758,1.758,0,0,1,1.714,1.714v3.514a3.025,3.025,0,0,1,3.057,3.057A3.025,3.025,0,0,1,24.086,18.4v3.886A1.758,1.758,0,0,1,22.371,24H6.771a1.758,1.758,0,0,1-1.714-1.714Zm5.6-2.857a1.122,1.122,0,1,0-.814-.329A1.106,1.106,0,0,0,10.657,15.543Zm7.829,0a1.122,1.122,0,1,0-.814-.329A1.106,1.106,0,0,0,18.486,15.543ZM9.771,19.286h9.6V17.571h-9.6Zm-3,3h15.6V8.771H6.771Zm0,0v0Z" transform="translate(289 14)" fill="#2a2a2a"/>
  </g>
</svg>
