<svg xmlns="http://www.w3.org/2000/svg" xmlns:xlink="http://www.w3.org/1999/xlink" width="30" height="30" viewBox="0 0 30 30">
  <defs>
    <clipPath id="clip-path">
      <rect id="사각형_2141" data-name="사각형 2141" width="23.546" height="26.039" fill="#fff"/>
    </clipPath>
  </defs>
  <g id="빠른조회아이콘" transform="translate(-216 -503)">
    <rect id="사각형_3252" data-name="사각형 3252" width="30" height="30" transform="translate(216 503)" fill="rgba(255,255,255,0)"/>
    <g id="빠른조회" transform="translate(219.529 504.765)" clip-path="url(#clip-path)">
      <path id="패스_51" data-name="패스 51" d="M16.285,24.582H2.533A2.465,2.465,0,0,1,0,22.2V2.386A2.465,2.465,0,0,1,2.533,0H16.285a2.465,2.465,0,0,1,2.532,2.386v7.7a.494.494,0,0,1-.989,0v-7.7a1.477,1.477,0,0,0-1.543-1.4H2.533a1.478,1.478,0,0,0-1.544,1.4V22.2a1.478,1.478,0,0,0,1.544,1.4H16.285a1.477,1.477,0,0,0,1.543-1.4V15.707a.494.494,0,0,1,.989,0V22.2a2.465,2.465,0,0,1-2.532,2.386" transform="translate(0.65 0.882)" fill="#0369d1" stroke="#0369d1" stroke-width="1"/>
      <path id="패스_52" data-name="패스 52" d="M19.152,9.7H6.349c-.29,0-.524-.4-.524-.882s.234-.882.524-.882h12.8c.29,0,.524.4.524.882s-.234.882-.524.882" transform="translate(-2.774 -3.78)" fill="#0369d1"/>
      <path id="패스_53" data-name="패스 53" d="M14.961,15.59H6.349c-.29,0-.524-.4-.524-.882s.234-.882.524-.882h8.613c.29,0,.524.4.524.882s-.234.882-.524.882" transform="translate(-2.774 -6.584)" fill="#0369d1"/>
      <path id="패스_54" data-name="패스 54" d="M12.866,21.48H6.349c-.29,0-.524-.4-.524-.882s.234-.882.524-.882h6.518c.29,0,.524.4.524.882s-.234.882-.524.882" transform="translate(-2.774 -9.389)" fill="#0369d1"/>
      <path id="패스_55" data-name="패스 55" d="M34.06,27.166l-2.888-2.888a3.887,3.887,0,1,0-.907.738l2.972,2.973a.582.582,0,0,0,.823-.823m-8.468-5.491a2.714,2.714,0,1,1,2.715,2.714,2.718,2.718,0,0,1-2.715-2.714" transform="translate(-11.634 -7.471)" fill="#f6cc5f" stroke="#f6cc5f" stroke-width="1"/>
    </g>
  </g>
</svg>
