<svg xmlns="http://www.w3.org/2000/svg" xmlns:xlink="http://www.w3.org/1999/xlink" width="30" height="30" viewBox="0 0 30 30">
  <defs>
    <clipPath id="clip-path">
      <rect id="사각형_2140" data-name="사각형 2140" width="26.207" height="28.319" transform="translate(0 0)" fill="#fff"/>
    </clipPath>
  </defs>
  <g id="대출가입아이콘" transform="translate(-125 -503)">
    <rect id="사각형_3253" data-name="사각형 3253" width="30" height="30" transform="translate(125 503)" fill="rgba(255,255,255,0)"/>
    <g id="대출가입아이콘-2" data-name="대출가입아이콘" transform="translate(126.765 503.882)" clip-path="url(#clip-path)">
      <path id="패스_48" data-name="패스 48" d="M16.256,5.614a.539.539,0,0,0-.109-.014V4.366L19.566.891A.524.524,0,0,0,19.193,0H5.318a.524.524,0,0,0-.377.887l3.088,3.2V5.659A11.25,11.25,0,0,0,0,16.588c0,8.017,6.728,9.684,10.775,9.966H13.7c4.011-.281,10.739-1.948,10.739-9.965,0-8.827-8.1-10.954-8.186-10.974m-7.18-.672H15.1v.393H9.076Zm8.866-3.894L15.652,3.376c-.009,0-.018-.006-.028-.006H8.793L6.551,1.048ZM13.668,25.507H10.811C6.357,25.2,1.048,23.4,1.048,16.588A10.076,10.076,0,0,1,8.381,6.645h7.68a10.076,10.076,0,0,1,7.334,9.943c0,6.808-5.309,8.609-9.727,8.919" transform="translate(0.882 0.882)" fill="#0369d1" stroke="#0369d1" stroke-width="1"/>
      <path id="패스_49" data-name="패스 49" d="M17.828,31.232a6.055,6.055,0,1,1,6.055-6.055,6.062,6.062,0,0,1-6.055,6.055m0-11.063a5.008,5.008,0,1,0,5.008,5.008,5.014,5.014,0,0,0-5.008-5.008" transform="translate(-4.724 -8.224)" fill="#f6cc5f" stroke="#f6cc5f" stroke-width="0.7"/>
      <path id="패스_50" data-name="패스 50" d="M22.5,27.973h-.515l.466-1.563a.354.354,0,1,0-.678-.2l-.527,1.765-.211.707-.23.771L20.6,28.68l-.2-.707-.506-1.836a.353.353,0,0,0-.332-.259.364.364,0,0,0-.345.243l-.606,1.852-.232.707-.3.908-.292-.908-.228-.707-.62-1.927a.354.354,0,0,0-.674.216l.551,1.711h-.447a.354.354,0,1,0,0,.707h.675l.7,2.16a.354.354,0,0,0,.336.246h0a.354.354,0,0,0,.336-.244l.708-2.162.231-.707.17-.518.142.518.2.707.592,2.146a.354.354,0,0,0,.337.26.367.367,0,0,0,.343-.253l.642-2.153H22.5a.354.354,0,0,0,0-.707" transform="translate(-6.367 -11.112)" fill="#f6cc5f" stroke="#f6cc5f" stroke-width="0.5"/>
    </g>
  </g>
</svg>
