<svg xmlns="http://www.w3.org/2000/svg" width="48.479" height="38.917" viewBox="0 0 48.479 38.917">
  <g id="icon" transform="translate(-1094.577 -671.495)">
    <g id="그룹_3692" data-name="그룹 3692" transform="translate(1094.836 694.521)">
      <path id="패스_3252" data-name="패스 3252" d="M1131.923,734.146h4.84a2.411,2.411,0,0,1,2.189,1.255l4.264,11.612c.254.69-.317,1.255-1.268,1.255h-43.788c-.951,0-1.521-.565-1.267-1.255l4.264-11.612a2.411,2.411,0,0,1,2.189-1.255h4.72" transform="translate(-1096.075 -733.387)" fill="#fff"/>
      <path id="패스_3253" data-name="패스 3253" d="M1140.71,747.786h-43.788a2.142,2.142,0,0,1-1.81-.814,1.572,1.572,0,0,1-.17-1.461l4.264-11.612a3.118,3.118,0,0,1,2.9-1.753h4.72a.759.759,0,1,1,0,1.519h-4.72a1.71,1.71,0,0,0-1.477.757l-4.264,11.612a.149.149,0,0,0-.013.064c.014.037.186.17.568.17h43.788c.381,0,.554-.133.568-.171a.161.161,0,0,0-.013-.063L1137,734.422a1.71,1.71,0,0,0-1.476-.757h-4.84a.759.759,0,0,1,0-1.519h4.84a3.119,3.119,0,0,1,2.9,1.753l4.264,11.612a1.569,1.569,0,0,1-.17,1.461A2.142,2.142,0,0,1,1140.71,747.786Z" transform="translate(-1094.836 -732.146)" fill="#656565" stroke="#656565" stroke-width="0.5"/>
    </g>
    <path id="패스_3254" data-name="패스 3254" d="M1139.238,737.363h3.483a1.734,1.734,0,0,1,1.575.9l3.068,8.354c.182.5-.228.9-.912.9h-31.506c-.684,0-1.094-.406-.912-.9l3.068-8.354a1.734,1.734,0,0,1,1.575-.9h3.4" transform="translate(-11.882 -40.861)" fill="#33a6ff"/>
    <g id="그룹_3693" data-name="그룹 3693" transform="translate(1099.572 676.156)">
      <path id="패스_3761" data-name="패스 3761" d="M0,0H36.969V18.481H0Z" transform="translate(0.759 0.759)" fill="#fff"/>
      <path id="패스_3255" data-name="패스 3255" d="M1145.04,703.773h-36.97a.759.759,0,0,1-.759-.759V684.532a.759.759,0,0,1,.759-.759h36.97a.759.759,0,0,1,.759.759v18.481A.759.759,0,0,1,1145.04,703.773Zm-36.21-1.519h35.451V685.292H1108.83Z" transform="translate(-1107.311 -683.773)" fill="#656565" stroke="#656565" stroke-width="0.5"/>
    </g>
    <g id="그룹_3703" data-name="그룹 3703" transform="translate(1111.935 671.495)">
      <g id="그룹_3694" data-name="그룹 3694" transform="translate(0 3.795)">
        <path id="패스_3256" data-name="패스 3256" d="M1153.359,687.3h-11.485v-3.8h11.485Z" transform="translate(-1141.115 -682.733)" fill="#fff"/>
        <path id="패스_3257" data-name="패스 3257" d="M1152.119,686.815h-11.485a.759.759,0,0,1-.759-.759v-3.8a.759.759,0,0,1,.759-.759h11.485a.759.759,0,0,1,.759.759v3.8A.759.759,0,0,1,1152.119,686.815Zm-10.726-1.519h9.967v-2.286h-9.967Z" transform="translate(-1139.874 -681.492)" fill="#656565"/>
      </g>
      <g id="그룹_3696" data-name="그룹 3696">
        <rect id="사각형_2132" data-name="사각형 2132" width="11.485" height="3.804" rx="1.902" transform="translate(0.759 0.759)" fill="#fd0"/>
        <g id="그룹_3695" data-name="그룹 3695">
          <path id="패스_3258" data-name="패스 3258" d="M1151.36,676.818h-9.967a1.52,1.52,0,0,1-1.519-1.519v-2.286a1.52,1.52,0,0,1,1.519-1.518h9.967a1.52,1.52,0,0,1,1.518,1.518V675.3A1.52,1.52,0,0,1,1151.36,676.818Zm-9.967-3.8V675.3h9.967v-2.286Z" transform="translate(-1139.874 -671.495)" fill="#656565"/>
        </g>
      </g>
      <g id="그룹_3697" data-name="그룹 3697" transform="translate(0 7.737)">
        <path id="패스_3259" data-name="패스 3259" d="M1153.359,697.679h-11.485v-3.8h11.485Z" transform="translate(-1141.115 -693.115)" fill="#fd0"/>
        <path id="패스_3260" data-name="패스 3260" d="M1152.119,697.2h-11.485a.759.759,0,0,1-.759-.759v-3.8a.759.759,0,0,1,.759-.759h11.485a.759.759,0,0,1,.759.759v3.8A.759.759,0,0,1,1152.119,697.2Zm-10.726-1.519h9.967v-2.286h-9.967Z" transform="translate(-1139.874 -691.875)" fill="#656565"/>
      </g>
      <g id="그룹_3698" data-name="그룹 3698" transform="translate(0 11.828)">
        <path id="패스_3261" data-name="패스 3261" d="M1153.359,708.454h-11.485v-3.8h11.485Z" transform="translate(-1141.115 -703.89)" fill="#fff"/>
        <path id="패스_3262" data-name="패스 3262" d="M1152.119,707.973h-11.485a.759.759,0,0,1-.759-.759v-3.8a.759.759,0,0,1,.759-.759h11.485a.759.759,0,0,1,.759.759v3.8A.759.759,0,0,1,1152.119,707.973Zm-10.726-1.519h9.967v-2.286h-9.967Z" transform="translate(-1139.874 -702.649)" fill="#656565"/>
      </g>
      <g id="그룹_3699" data-name="그룹 3699" transform="translate(0 15.321)">
        <path id="패스_3263" data-name="패스 3263" d="M1153.359,717.654h-11.485v-3.8h11.485Z" transform="translate(-1141.115 -713.091)" fill="#fd0"/>
        <path id="패스_3264" data-name="패스 3264" d="M1152.119,717.173h-11.485a.759.759,0,0,1-.759-.759v-3.8a.759.759,0,0,1,.759-.759h11.485a.759.759,0,0,1,.759.759v3.8A.759.759,0,0,1,1152.119,717.173Zm-10.726-1.519h9.967v-2.286h-9.967Z" transform="translate(-1139.874 -711.85)" fill="#656565"/>
      </g>
      <g id="그룹_3700" data-name="그룹 3700" transform="translate(0 19.262)">
        <path id="패스_3265" data-name="패스 3265" d="M1153.359,728.037h-11.485v-3.8h11.485Z" transform="translate(-1141.115 -723.473)" fill="#fff"/>
        <path id="패스_3266" data-name="패스 3266" d="M1152.119,727.555h-11.485a.759.759,0,0,1-.759-.759v-3.8a.759.759,0,0,1,.759-.759h11.485a.759.759,0,0,1,.759.759v3.8A.759.759,0,0,1,1152.119,727.555Zm-10.726-1.519h9.967v-2.286h-9.967Z" transform="translate(-1139.874 -722.232)" fill="#656565"/>
      </g>
      <g id="그룹_3702" data-name="그룹 3702" transform="translate(0 23.067)">
        <rect id="사각형_2133" data-name="사각형 2133" width="11.485" height="3.805" rx="1.902" transform="translate(0.759 0.759)" fill="#fd0"/>
        <g id="그룹_3701" data-name="그룹 3701">
          <path id="패스_3267" data-name="패스 3267" d="M1151.36,737.577h-9.967a1.52,1.52,0,0,1-1.519-1.519v-2.285a1.52,1.52,0,0,1,1.519-1.519h9.967a1.52,1.52,0,0,1,1.518,1.519v2.285A1.52,1.52,0,0,1,1151.36,737.577Zm-9.967-3.8v2.285h9.967v-2.285Z" transform="translate(-1139.874 -732.254)" fill="#656565"/>
        </g>
      </g>
    </g>
    <g id="그룹_3711" data-name="그룹 3711" transform="translate(1104.921 681.443)">
      <g id="그룹_3705" data-name="그룹 3705" transform="translate(0)">
        <rect id="사각형_2134" data-name="사각형 2134" width="11.231" height="3.72" rx="1.86" transform="translate(0.759 0.76)" fill="#fd0"/>
        <g id="그룹_3704" data-name="그룹 3704">
          <path id="패스_3268" data-name="패스 3268" d="M1132.631,702.938h-9.713a1.52,1.52,0,0,1-1.519-1.519v-2.2a1.52,1.52,0,0,1,1.519-1.519h9.713a1.52,1.52,0,0,1,1.518,1.519v2.2A1.52,1.52,0,0,1,1132.631,702.938Zm-9.713-3.72v2.2h9.713v-2.2Z" transform="translate(-1121.4 -697.699)" fill="#656565"/>
        </g>
      </g>
      <g id="그룹_3706" data-name="그룹 3706" transform="translate(0 3.917)">
        <path id="패스_3269" data-name="패스 3269" d="M1134.631,713.737H1123.4v-3.72h11.231Z" transform="translate(-1122.641 -709.257)" fill="#fff"/>
        <path id="패스_3270" data-name="패스 3270" d="M1133.391,713.255h-11.231a.759.759,0,0,1-.759-.759v-3.721a.759.759,0,0,1,.759-.759h11.231a.759.759,0,0,1,.759.759V712.5A.759.759,0,0,1,1133.391,713.255Zm-10.472-1.519h9.713v-2.2h-9.713Z" transform="translate(-1121.4 -708.016)" fill="#656565"/>
      </g>
      <g id="그룹_3707" data-name="그룹 3707" transform="translate(0 7.333)">
        <path id="패스_3271" data-name="패스 3271" d="M1134.631,722.734H1123.4v-3.72h11.231Z" transform="translate(-1122.641 -718.254)" fill="#fd0"/>
        <path id="패스_3272" data-name="패스 3272" d="M1133.391,722.252h-11.231a.759.759,0,0,1-.759-.759v-3.72a.759.759,0,0,1,.759-.759h11.231a.759.759,0,0,1,.759.759v3.72A.759.759,0,0,1,1133.391,722.252Zm-10.472-1.518h9.713v-2.2h-9.713Z" transform="translate(-1121.4 -717.014)" fill="#656565"/>
      </g>
      <g id="그룹_3708" data-name="그룹 3708" transform="translate(0 11.187)">
        <path id="패스_3273" data-name="패스 3273" d="M1134.631,732.886H1123.4v-3.72h11.231Z" transform="translate(-1122.641 -728.407)" fill="#fff"/>
        <path id="패스_3274" data-name="패스 3274" d="M1133.391,732.405h-11.231a.76.76,0,0,1-.759-.759v-3.721a.759.759,0,0,1,.759-.759h11.231a.759.759,0,0,1,.759.759v3.721A.759.759,0,0,1,1133.391,732.405Zm-10.472-1.519h9.713v-2.2h-9.713Z" transform="translate(-1121.4 -727.166)" fill="#656565"/>
      </g>
      <g id="그룹_3710" data-name="그룹 3710" transform="translate(0 14.908)">
        <rect id="사각형_2135" data-name="사각형 2135" width="11.231" height="3.72" rx="1.86" transform="translate(0.759 0.759)" fill="#fd0"/>
        <g id="그룹_3709" data-name="그룹 3709">
          <path id="패스_3275" data-name="패스 3275" d="M1132.631,742.2h-9.713a1.52,1.52,0,0,1-1.519-1.519v-2.2a1.52,1.52,0,0,1,1.519-1.519h9.713a1.52,1.52,0,0,1,1.518,1.519v2.2A1.52,1.52,0,0,1,1132.631,742.2Zm-9.713-3.72v2.2h9.713v-2.2Z" transform="translate(-1121.4 -736.966)" fill="#656565"/>
        </g>
      </g>
    </g>
    <g id="그룹_3718" data-name="그룹 3718" transform="translate(1121.185 686.269)">
      <g id="그룹_3713" data-name="그룹 3713" transform="translate(0 0)">
        <rect id="사각형_2136" data-name="사각형 2136" width="11.231" height="3.72" rx="1.86" transform="translate(0.759 0.759)" fill="#fd0"/>
        <g id="그룹_3712" data-name="그룹 3712">
          <path id="패스_3276" data-name="패스 3276" d="M1175.471,715.647h-9.712a1.52,1.52,0,0,1-1.519-1.519v-2.2a1.52,1.52,0,0,1,1.519-1.519h9.712a1.52,1.52,0,0,1,1.518,1.519v2.2A1.52,1.52,0,0,1,1175.471,715.647Zm-9.712-3.72v2.2h9.712v-2.2Z" transform="translate(-1164.24 -710.409)" fill="#656565"/>
        </g>
      </g>
      <g id="그룹_3714" data-name="그룹 3714" transform="translate(0 3.917)">
        <path id="패스_3277" data-name="패스 3277" d="M1177.471,726.446H1166.24v-3.72h11.231Z" transform="translate(-1165.48 -721.966)" fill="#fff"/>
        <path id="패스_3278" data-name="패스 3278" d="M1176.23,725.965H1165a.759.759,0,0,1-.759-.759v-3.72a.759.759,0,0,1,.759-.759h11.231a.759.759,0,0,1,.759.759v3.72A.759.759,0,0,1,1176.23,725.965Zm-10.471-1.519h9.712v-2.2h-9.712Z" transform="translate(-1164.24 -720.726)" fill="#656565"/>
      </g>
      <g id="그룹_3715" data-name="그룹 3715" transform="translate(0 7.333)">
        <path id="패스_3279" data-name="패스 3279" d="M1177.471,735.443H1166.24v-3.72h11.231Z" transform="translate(-1165.48 -730.963)" fill="#fd0"/>
        <path id="패스_3280" data-name="패스 3280" d="M1176.23,734.961H1165a.759.759,0,0,1-.759-.759v-3.72a.759.759,0,0,1,.759-.759h11.231a.759.759,0,0,1,.759.759v3.72A.759.759,0,0,1,1176.23,734.961Zm-10.471-1.519h9.712v-2.2h-9.712Z" transform="translate(-1164.24 -729.723)" fill="#656565"/>
      </g>
      <g id="그룹_3717" data-name="그룹 3717" transform="translate(0 11.49)">
        <rect id="사각형_2137" data-name="사각형 2137" width="11.231" height="3.72" rx="1.86" transform="translate(0.759 0.759)" fill="#fff"/>
        <g id="그룹_3716" data-name="그룹 3716">
          <path id="패스_3281" data-name="패스 3281" d="M1175.471,745.914h-9.712a1.52,1.52,0,0,1-1.519-1.519v-2.2a1.52,1.52,0,0,1,1.519-1.519h9.712a1.52,1.52,0,0,1,1.518,1.519v2.2A1.52,1.52,0,0,1,1175.471,745.914Zm-9.712-3.72v2.2h9.712v-2.2Z" transform="translate(-1164.24 -740.675)" fill="#656565"/>
        </g>
      </g>
    </g>
  </g>
</svg>
