<svg xmlns="http://www.w3.org/2000/svg" xmlns:xlink="http://www.w3.org/1999/xlink" width="30" height="30" viewBox="0 0 30 30">
  <defs>
    <clipPath id="clip-path">
      <rect id="사각형_2139" data-name="사각형 2139" width="26.909" height="28.769" transform="translate(0 0)" fill="none"/>
    </clipPath>
  </defs>
  <g id="펀드가입아이콘" transform="translate(-33 -503)">
    <rect id="사각형_3254" data-name="사각형 3254" width="30" height="30" transform="translate(33 503)" fill="rgba(255,255,255,0)"/>
    <g id="펀드가입아이콘-2" data-name="펀드가입아이콘" transform="translate(34.765 503.882)" clip-path="url(#clip-path)">
      <path id="패스_46" data-name="패스 46" d="M24.719,16.119H19.6a.524.524,0,0,0-.524.524v4.794H14.46V19.916a.524.524,0,0,0-.524-.524H8.812a.524.524,0,0,0-.524.524V24.3H3.426a.524.524,0,0,0-.524.524v7.568a.524.524,0,0,0,.524.524H8.55a.5.5,0,0,0,.131-.027.5.5,0,0,0,.131.027h5.124a.5.5,0,0,0,.122-.025.5.5,0,0,0,.122.025H19.3a.517.517,0,0,0,.146-.029.521.521,0,0,0,.146.029h5.124a.524.524,0,0,0,.524-.524V16.643a.524.524,0,0,0-.524-.524M8.026,31.868H3.949v-6.52H8.026Zm5.386,0H9.336V20.44h4.076Zm5.368,0H14.7V22.484H18.78Zm5.415,0H20.119v-14.7H24.2Z" transform="translate(-0.5 -5.029)" fill="#0369d1" stroke="#0369d1" stroke-width="1"/>
      <path id="패스_47" data-name="패스 47" d="M25.006.17A.519.519,0,0,0,24.5.015L21.309.781A.524.524,0,0,0,21.554,1.8l1.491-.358-8.165,6.7-5.109-2.7a.522.522,0,0,0-.579.06l-9,7.467a.524.524,0,0,0,.669.806L9.59,6.525l5.107,2.7a.523.523,0,0,0,.577-.058l8.137-6.674L23.1,3.42a.524.524,0,1,0,.994.332L25.117.69a.523.523,0,0,0-.111-.52" transform="translate(1.001 0.882)" fill="#f6cc5f" stroke="#f6cc5f" stroke-width="1"/>
    </g>
  </g>
</svg>
