<svg xmlns="http://www.w3.org/2000/svg" width="30" height="30" viewBox="0 0 30 30">
  <g id="예금가입아이콘" transform="translate(-308 -397)">
    <rect id="사각형_3250" data-name="사각형 3250" width="30" height="30" transform="translate(308 397)" fill="rgba(255,255,255,0)"/>
    <g id="예금가입아이콘-2" data-name="예금가입아이콘" transform="translate(309.049 400.487)">
      <path id="패스_43" data-name="패스 43" d="M46.959,19.985a.908.908,0,1,0-.908.908.909.909,0,0,0,.908-.908" transform="translate(-24.447 -9.719)" fill="#0369d1"/>
      <path id="패스_17898" data-name="패스 17898" d="M29.8,41.309H29.5l.263-.882a.2.2,0,1,0-.382-.114l-.3,1-.119.4-.13.435-.12-.435-.11-.4-.286-1.036a.2.2,0,0,0-.188-.146.205.205,0,0,0-.194.137L27.6,41.309l-.131.4-.168.512-.165-.512-.128-.4-.35-1.087a.2.2,0,0,0-.38.122l.311.965h-.252a.2.2,0,0,0,0,.4h.381l.393,1.219a.2.2,0,0,0,.189.139h0a.2.2,0,0,0,.19-.138l.4-1.22.131-.4.1-.292.08.292.11.4.334,1.211a.2.2,0,0,0,.19.147.207.207,0,0,0,.193-.143l.362-1.215h.41a.2.2,0,0,0,0-.4" transform="translate(-13.504 -37.783)" fill="#f6cc5f" stroke="#f6cc5f" stroke-width="0.5"/>
      <path id="패스_17899" data-name="패스 17899" d="M4.313,15.244c0,.062.005.123.007.185a.545.545,0,0,0-.2.162c.05-.069-.034.037-.038.041-.029.031-.061.06-.093.089a1.105,1.105,0,0,1-.166.109,1.492,1.492,0,0,1-.514.176,1.247,1.247,0,0,1-.125.011c.064-.051.132-.1.192-.154A1.688,1.688,0,0,0,4,14.575a1.2,1.2,0,0,0-1.138-1.189,1.8,1.8,0,0,0-1.326.981,2.085,2.085,0,0,0-.267,1.08,1.121,1.121,0,0,1-.258-.237A.134.134,0,0,0,1,15.194a.1.1,0,0,0-.01-.018c-.027-.042-.053-.085-.076-.129A.089.089,0,0,0,.9,15.031a.125.125,0,0,0,0-.018c-.011-.037-.02-.074-.028-.112,0-.018,0-.056,0-.066s0-.039,0-.059l0-.02a.653.653,0,0,1,.09-.224.438.438,0,0,0-.756-.442,1.435,1.435,0,0,0,0,1.5,2.259,2.259,0,0,0,1.147.876,1.849,1.849,0,0,0,.521.109,2.3,2.3,0,0,0,2.5-.065M2.1,15.693l-.033.009a.237.237,0,0,1,.035-.01h0m.825-1.435h0a.042.042,0,0,0-.011-.01l.014.01m-.7.681c.01-.019.035-.07.035-.07.022-.041.046-.082.071-.122a1.258,1.258,0,0,1,.1-.147,1.773,1.773,0,0,1,.2-.207.318.318,0,0,0,.027-.025l.031-.019c.014-.009.159-.087.088-.057a.591.591,0,0,1,.092-.028l.029,0c.008.007.029.012.015,0h0a.542.542,0,0,0,.047.031.533.533,0,0,1,.122.179c-.031-.067.018.058.019.06.005.02.009.04.013.06l0,.024c0,.028,0,.056,0,.084s-.013.057-.016.066-.019.053-.023.065-.025.052-.04.077-.041.067-.063.1a.219.219,0,0,0-.012.02l-.016.018a2.383,2.383,0,0,1-.194.2c-.029.027-.059.052-.089.078l-.05.041c-.05.038-.1.075-.155.111-.088.059-.178.113-.271.165L2.183,15.6a1.035,1.035,0,0,1,.042-.658" transform="translate(0 -3.846)" fill="#0369d1" stroke="#0369d1" stroke-width="0.3"/>
      <path id="패스_17900" data-name="패스 17900" d="M28.615,11.007a11.492,11.492,0,0,1-3.6-3.239,18.981,18.981,0,0,1,.292-3.592.5.5,0,0,0-.531-.584c-1.415.109-2.888,1.569-3.816,2.678-.507-.137-1.016-.26-1.513-.362a.5.5,0,1,0-.2.979c.342.07.691.154,1.041.242-.123.17-.213.3-.252.357a.5.5,0,0,0,.829.559A10.725,10.725,0,0,1,24.2,4.771c-.181,1.311-.406,3.707.2,4.581a.5.5,0,0,0,.411.215.494.494,0,0,0,.284-.089c.007,0,.011-.013.018-.018a10.779,10.779,0,0,0,2.8,2.318v4.134c-.965.375-3.488,1.517-3.894,3.33-.175.786-.7,3.1-.911,4.023h-2.47V21.4a.5.5,0,0,0-.775-.417c-.153.1-3.783,2.429-7.24-.045a.5.5,0,0,0-.791.406V23.2H9.172c-.6-1.034-2.924-5.328-2.924-9.713,0-3,1.977-5.4,5.289-6.428a.5.5,0,0,0-.3-.955C7.488,7.271,5.248,10.031,5.248,13.49c0,.062.005.123.007.185a3.009,3.009,0,0,0,.056,1.076,23.386,23.386,0,0,0,3.153,9.217.5.5,0,0,0,.423.234h3.446a.5.5,0,0,0,.5-.5V22.245a7.609,7.609,0,0,0,6.806-.014v1.534a.5.5,0,0,0,.5.5h3.369A.5.5,0,0,0,24,23.876s.778-3.423,1-4.416c.3-1.337,2.684-2.42,3.578-2.725a.5.5,0,0,0,.339-.473v-4.8a.5.5,0,0,0-.3-.457" transform="translate(-0.845 -1.806)" fill="#0369d1" stroke="#0369d1" stroke-width="1"/>
      <path id="패스_17897" data-name="패스 17897" d="M25.682,40.987A3.791,3.791,0,1,1,29.473,37.2a3.8,3.8,0,0,1-3.791,3.791m0-6.926A3.135,3.135,0,1,0,28.817,37.2a3.139,3.139,0,0,0-3.135-3.135" transform="translate(-11.112 -33.405)" fill="#f6cc5f" stroke="#f6cc5f" stroke-width="0.5"/>
    </g>
  </g>
</svg>
