<svg xmlns="http://www.w3.org/2000/svg" width="20" height="20" viewBox="0 0 20 20">
  <g id="인증서아이콘" transform="translate(-20 -610)">
    <rect id="사각형_3232" data-name="사각형 3232" width="20" height="20" transform="translate(20 610)" fill="rgba(255,255,255,0)"/>
    <path id="verified_user_FILL0_wght400_GRAD0_opsz48" d="M13.914,15.393,18.8,10.507l-.9-.879L13.979,13.55l-2.164-2.164-.943.943Zm.943,5.7a8.415,8.415,0,0,1-4.929-3.482A10.163,10.163,0,0,1,8,11.621v-5.1L14.857,3.95l6.857,2.571v5.1a10.163,10.163,0,0,1-1.929,5.989A8.415,8.415,0,0,1,14.857,21.093Zm0-1.329a7.731,7.731,0,0,0,4.018-3.075,8.743,8.743,0,0,0,1.554-5.068v-4.2l-5.571-2.1-5.571,2.1v4.2a8.743,8.743,0,0,0,1.554,5.068,7.731,7.731,0,0,0,4.018,3.075ZM14.857,12.543Z" transform="translate(15 607.05)"/>
  </g>
</svg>
