<svg xmlns="http://www.w3.org/2000/svg" width="30" height="30" viewBox="0 0 30 30">
  <g id="즉시이체아이콘" transform="translate(-129 -402)">
    <rect id="사각형_3248" data-name="사각형 3248" width="30" height="30" transform="translate(129 402)" fill="rgba(255,255,255,0)"/>
    <path id="패스_33" data-name="패스 33" d="M25.581,20.614H24.7l.8-2.681a.606.606,0,1,0-1.162-.348l-.9,3.028-.361,1.213-.395,1.322-.365-1.322-.335-1.213-.868-3.151a.606.606,0,0,0-.57-.445.625.625,0,0,0-.591.417l-1.04,3.178-.4,1.213L18,23.384l-.5-1.557-.391-1.213-1.065-3.307a.606.606,0,0,0-1.155.371l.945,2.935h-.767a.607.607,0,0,0,0,1.213h1.157l1.193,3.706a.607.607,0,0,0,.576.421h0a.607.607,0,0,0,.577-.418l1.214-3.709.4-1.213.291-.888.244.888.335,1.213,1.016,3.682a.608.608,0,0,0,.578.446.629.629,0,0,0,.588-.434l1.1-3.694h1.245a.607.607,0,0,0,0-1.213" transform="translate(123.632 396.078)" fill="#f6cc5f" stroke="#f6cc5f" stroke-width="1"/>
    <path id="패스_34" data-name="패스 34" d="M15.008,32.1A13.169,13.169,0,0,1,4.752,27.222a.6.6,0,1,1,.941-.759,11.949,11.949,0,0,0,20.7-11.069.6.6,0,1,1,1.153-.362A13.141,13.141,0,0,1,15.008,32.1" transform="translate(129.012 398.063)" fill="#0369d1" stroke="#0369d1" stroke-width="1"/>
    <path id="패스_35" data-name="패스 35" d="M.889,16.432a.605.605,0,0,1-.59-.476A13.158,13.158,0,0,1,23.693,5.288a.6.6,0,0,1-.969.724A11.948,11.948,0,0,0,1.481,15.7a.6.6,0,0,1-.463.719.587.587,0,0,1-.129.014" transform="translate(130.839 403.839)" fill="#0369d1" stroke="#0369d1" stroke-width="1"/>
    <path id="패스_36" data-name="패스 36" d="M3.969,36.632a.6.6,0,0,1-.595-.5L2.751,32.5a.6.6,0,0,1,.672-.7l3.555.451a.6.6,0,1,1-.152,1.2L4.081,33.1l.484,2.82a.6.6,0,0,1-.493.7.6.6,0,0,1-.1.009" transform="translate(129.754 391.266)" fill="#0369d1" stroke="#0369d1" stroke-width="1"/>
    <path id="패스_37" data-name="패스 37" d="M36.565,9.272a.622.622,0,0,1-.133-.015l-3.5-.79a.6.6,0,1,1,.266-1.18l2.7.609L35.69,5.045a.6.6,0,0,1,.558-.648.6.6,0,0,1,.647.558l.273,3.667a.6.6,0,0,1-.6.649" transform="translate(117.995 402.101)" fill="#0369d1" stroke="#0369d1" stroke-width="1"/>
  </g>
</svg>
