<svg id="그룹_5116" data-name="그룹 5116" xmlns="http://www.w3.org/2000/svg" width="47.96" height="43.768" viewBox="0 0 47.96 43.768">
  <g id="그룹_5115" data-name="그룹 5115" transform="translate(15.189)">
    <g id="그룹_3727" data-name="그룹 3727" transform="translate(0)">
      <g id="그룹_3725" data-name="그룹 3725">
        <path id="패스_3288" data-name="패스 3288" d="M149.215,319.148v29.506a1.663,1.663,0,0,1-1.658,1.657h-27.77a1.662,1.662,0,0,1-1.656-1.657v-35.9a1.662,1.662,0,0,1,1.656-1.658H140.4" transform="translate(-117.287 -310.249)" fill="#fff"/>
        <path id="패스_3289" data-name="패스 3289" d="M146.4,350h-27.77a2.5,2.5,0,0,1-2.5-2.5v-35.9a2.5,2.5,0,0,1,2.5-2.5h20.615a.844.844,0,0,1,0,1.687H118.631a.815.815,0,0,0-.813.814v35.9a.814.814,0,0,0,.813.813H146.4a.815.815,0,0,0,.814-.813V317.992a.844.844,0,0,1,1.687,0V347.5A2.5,2.5,0,0,1,146.4,350Z" transform="translate(-116.131 -309.093)" fill="#656565"/>
      </g>
      <g id="그룹_3726" data-name="그룹 3726" transform="translate(22.486 0)">
        <path id="패스_3290" data-name="패스 3290" d="M171.442,311.093v7.734h8.6Z" transform="translate(-170.598 -310.249)" fill="#33a6ff"/>
        <path id="패스_3291" data-name="패스 3291" d="M178.884,318.514h-8.6a.843.843,0,0,1-.844-.844v-7.734a.843.843,0,0,1,1.408-.627l8.6,7.734a.844.844,0,0,1-.564,1.471Zm-7.755-1.687h5.556l-5.556-5Z" transform="translate(-169.442 -309.093)" fill="#656565"/>
      </g>
    </g>
    <g id="그룹_3728" data-name="그룹 3728" transform="translate(6.437 15.326)">
      <rect id="사각형_2138" data-name="사각형 2138" width="10.112" height="1.687" fill="#656565"/>
    </g>
    <g id="그룹_3729" data-name="그룹 3729" transform="translate(6.437 31.885)">
      <rect id="사각형_2139" data-name="사각형 2139" width="10.112" height="1.687" transform="translate(0 0)" fill="#656565"/>
    </g>
    <g id="그룹_3730" data-name="그룹 3730" transform="translate(6.437 20.845)">
      <rect id="사각형_2140" data-name="사각형 2140" width="18.52" height="1.687" fill="#656565"/>
    </g>
    <g id="그룹_3731" data-name="그룹 3731" transform="translate(6.437 26.365)">
      <rect id="사각형_2141" data-name="사각형 2141" width="18.52" height="1.687" fill="#656565"/>
    </g>
    <rect id="사각형_2142" data-name="사각형 2142" width="12.898" height="3.906" transform="translate(6.437 7.828)" fill="#fd0"/>
  </g>
  <g id="그룹_5114" data-name="그룹 5114" transform="translate(0 18.094)">
    <g id="그룹_4104" data-name="그룹 4104">
      <path id="패스_3757" data-name="패스 3757" d="M643.22,346.219a11.977,11.977,0,1,1-11.976-11.978A11.977,11.977,0,0,1,643.22,346.219Z" transform="translate(-618.407 -333.382)" fill="#fd0"/>
      <path id="패스_3758" data-name="패스 3758" d="M630.1,357.915a12.837,12.837,0,1,1,12.835-12.837A12.851,12.851,0,0,1,630.1,357.915Zm0-23.956a11.119,11.119,0,1,0,11.117,11.119A11.132,11.132,0,0,0,630.1,333.959Z" transform="translate(-617.266 -332.241)" fill="#656565"/>
    </g>
    <g id="그룹_4105" data-name="그룹 4105" transform="translate(3.399 3.399)">
      <path id="패스_3759" data-name="패스 3759" d="M644.335,350.734a8.578,8.578,0,1,1-8.577-8.579A8.579,8.579,0,0,1,644.335,350.734Z" transform="translate(-626.32 -341.296)" fill="#fd0"/>
      <path id="패스_3760" data-name="패스 3760" d="M634.617,359.031a9.438,9.438,0,1,1,9.436-9.438A9.449,9.449,0,0,1,634.617,359.031Zm0-17.158a7.72,7.72,0,1,0,7.718,7.72A7.729,7.729,0,0,0,634.617,341.873Z" transform="translate(-625.179 -340.155)" fill="#656565"/>
    </g>
    <g id="그룹_4109" data-name="그룹 4109" transform="translate(11.977 1.208)">
      <g id="그룹_4107" data-name="그룹 4107">
        <rect id="사각형_2203" data-name="사각형 2203" width="1.718" height="2.887" fill="#656565"/>
      </g>
      <g id="그룹_4108" data-name="그룹 4108" transform="translate(0 20.529)">
        <rect id="사각형_2204" data-name="사각형 2204" width="1.718" height="2.887" fill="#656565"/>
      </g>
    </g>
    <g id="그룹_4112" data-name="그룹 4112" transform="translate(3.95 4.029)">
      <g id="그룹_4110" data-name="그룹 4110" transform="translate(14.516 0)">
        <rect id="사각형_2205" data-name="사각형 2205" width="2.887" height="1.718" transform="translate(0 2.041) rotate(-45)" fill="#656565"/>
      </g>
      <g id="그룹_4111" data-name="그룹 4111" transform="translate(0 14.516)">
        <rect id="사각형_2206" data-name="사각형 2206" width="2.887" height="1.718" transform="translate(0 2.041) rotate(-45)" fill="#656565"/>
      </g>
    </g>
    <g id="그룹_4115" data-name="그룹 4115" transform="translate(1.128 12.056)">
      <g id="그룹_4113" data-name="그룹 4113" transform="translate(20.529)">
        <rect id="사각형_2207" data-name="사각형 2207" width="2.887" height="1.718" fill="#656565"/>
      </g>
      <g id="그룹_4114" data-name="그룹 4114">
        <rect id="사각형_2208" data-name="사각형 2208" width="2.887" height="1.718" fill="#656565"/>
      </g>
    </g>
    <g id="그룹_4118" data-name="그룹 4118" transform="translate(3.95 4.029)">
      <g id="그룹_4116" data-name="그룹 4116" transform="translate(14.516 14.516)">
        <rect id="사각형_2209" data-name="사각형 2209" width="1.718" height="2.887" transform="matrix(0.707, -0.707, 0.707, 0.707, 0, 1.215)" fill="#656565"/>
      </g>
      <g id="그룹_4117" data-name="그룹 4117" transform="translate(0 0)">
        <rect id="사각형_2210" data-name="사각형 2210" width="1.718" height="2.887" transform="translate(0 1.215) rotate(-45.003)" fill="#656565"/>
      </g>
    </g>
    <text id="_" data-name="￦" transform="translate(8.336 17.557)" fill="#656565" font-size="9" font-family="NotoSansKR-Bold, Noto Sans Korean" font-weight="700" letter-spacing="-0.02em"><tspan x="0" y="0">￦</tspan></text>
  </g>
</svg>
