<svg xmlns="http://www.w3.org/2000/svg" xmlns:xlink="http://www.w3.org/1999/xlink" width="30" height="30.375" viewBox="0 0 30 30.375">
  <defs>
    <clipPath id="clip-path">
      <rect id="사각형_2135" data-name="사각형 2135" width="24.188" height="30.375" fill="#fff"/>
    </clipPath>
  </defs>
  <g id="거래내역아이콘" transform="translate(-33 -397)">
    <rect id="사각형_3247" data-name="사각형 3247" width="30" height="30" transform="translate(33 397)" fill="rgba(255,255,255,0)"/>
    <g id="거래내역_아이콘" data-name="거래내역 아이콘" transform="translate(35.647 397)" clip-path="url(#clip-path)">
      <path id="패스_27" data-name="패스 27" d="M1.785,25.377a.711.711,0,0,1-.71-.71V1.785a.711.711,0,0,1,.71-.71H18.634a.711.711,0,0,1,.711.71V18.149a6.182,6.182,0,0,1,1.075.348V1.785A1.787,1.787,0,0,0,18.634,0H1.785A1.787,1.787,0,0,0,0,1.785V24.667a1.787,1.787,0,0,0,1.785,1.785h10.4a6.18,6.18,0,0,1-.313-1.075Z" transform="translate(0.92 0.458)" fill="#0369d1" stroke="#0369d1" stroke-width="1"/>
      <path id="패스_28" data-name="패스 28" d="M19.45,9.564H6.315c-.3,0-.537-.4-.537-.882s.24-.882.537-.882H19.45c.3,0,.537.4.537.882s-.24.882-.537.882" transform="translate(-1.77 -3.608)" fill="#0369d1"/>
      <path id="패스_29" data-name="패스 29" d="M19.45,15.453H6.315c-.3,0-.537-.4-.537-.882s.24-.882.537-.882H19.45c.3,0,.537.4.537.882s-.24.882-.537.882" transform="translate(-1.77 -6.333)" fill="#0369d1"/>
      <path id="패스_30" data-name="패스 30" d="M19.45,21.342H6.315c-.3,0-.537-.4-.537-.882s.24-.882.537-.882H19.45c.3,0,.537.4.537.882s-.24.882-.537.882" transform="translate(-1.77 -9.057)" fill="#0369d1"/>
      <path id="패스_31" data-name="패스 31" d="M19.45,27.231H6.315c-.3,0-.537-.4-.537-.882s.24-.882.537-.882H19.45c.3,0,.537.4.537.882s-.24.882-.537.882" transform="translate(-1.77 -11.782)" fill="#0369d1"/>
      <path id="패스_25" data-name="패스 25" d="M28.09,45.8a6.2,6.2,0,1,1,6.2-6.2,6.206,6.206,0,0,1-6.2,6.2m0-11.325A5.126,5.126,0,1,0,33.216,39.6a5.132,5.132,0,0,0-5.126-5.126" transform="translate(-10.761 -16.309)" fill="#f6cc5f" stroke="#f6cc5f" stroke-width="1"/>
      <path id="패스_26" data-name="패스 26" d="M32.119,42.088h-.475l.43-1.441a.326.326,0,1,0-.625-.187l-.486,1.628-.194.652-.212.711-.2-.711-.18-.652-.467-1.694a.326.326,0,0,0-.307-.239.336.336,0,0,0-.318.224l-.559,1.709-.214.652-.274.837-.27-.837-.21-.652-.573-1.778a.326.326,0,0,0-.621.2l.508,1.578h-.412a.326.326,0,0,0,0,.652h.622l.642,1.993a.326.326,0,0,0,.31.227h0a.327.327,0,0,0,.31-.225L29,42.74l.214-.652.157-.478.131.478.18.652.546,1.98a.327.327,0,0,0,.311.24.338.338,0,0,0,.316-.233l.592-1.986h.67a.326.326,0,1,0,0-.652" transform="translate(-11.976 -19.227)" fill="#f6cc5f" stroke="#f6cc5f" stroke-width="1"/>
    </g>
  </g>
</svg>
