<svg xmlns="http://www.w3.org/2000/svg" width="20" height="20" viewBox="0 0 20 20">
  <g id="패턴아이이콘" transform="translate(-20 -518)">
    <rect id="사각형_3230" data-name="사각형 3230" width="20" height="20" transform="translate(20 518)" fill="rgba(255,255,255,0)"/>
    <path id="pattern_FILL0_wght400_GRAD0_opsz48" d="M9.414,21.714a1.414,1.414,0,0,1,0-2.829,1.845,1.845,0,0,1,.2.011.783.783,0,0,1,.2.054l3.686-3.686a1.276,1.276,0,0,1-.032-.75,1.422,1.422,0,0,1,1.039-1.039,1.276,1.276,0,0,1,.75.032l3.664-3.664q-.021-.107-.032-.214t-.011-.214A1.409,1.409,0,1,1,20.3,10.829a3.493,3.493,0,0,1-.45-.043l-3.643,3.643a1.569,1.569,0,0,1,.021.771,1.328,1.328,0,0,1-.364.664,1.31,1.31,0,0,1-.686.375,1.76,1.76,0,0,1-.793-.032l-3.45,3.45h2.657a1.278,1.278,0,0,1,.514-.568,1.483,1.483,0,0,1,1.5,0,1.278,1.278,0,0,1,.514.568h2.914a1.441,1.441,0,0,1,.525-.568,1.387,1.387,0,0,1,.739-.2,1.414,1.414,0,0,1,0,2.829,1.442,1.442,0,0,1-.75-.2,1.278,1.278,0,0,1-.514-.568H16.121a1.278,1.278,0,0,1-.514.568,1.483,1.483,0,0,1-1.5,0,1.278,1.278,0,0,1-.514-.568H10.679a1.278,1.278,0,0,1-.514.568A1.442,1.442,0,0,1,9.414,21.714Zm0-5.443a1.427,1.427,0,1,1,1-.418,1.36,1.36,0,0,1-1,.418Zm0-5.443a1.409,1.409,0,0,1-1-2.411,1.409,1.409,0,1,1,1.993,1.993A1.36,1.36,0,0,1,9.414,10.829Zm5.443,0a1.409,1.409,0,0,1-1-2.411,1.409,1.409,0,1,1,1.993,1.993A1.36,1.36,0,0,1,14.857,10.829ZM20.3,16.271a1.427,1.427,0,1,1,1-.418A1.36,1.36,0,0,1,20.3,16.271Z" transform="translate(15 513)"/>
  </g>
</svg>
