<svg xmlns="http://www.w3.org/2000/svg" width="20" height="20" viewBox="0 0 20 20">
  <g id="아이디아이콘" transform="translate(-20 -564)">
    <rect id="사각형_3231" data-name="사각형 3231" width="20" height="20" transform="translate(20 564)" fill="rgba(255,255,255,0)"/>
    <path id="lock_FILL0_wght400_GRAD0_opsz48" d="M9.286,20A1.28,1.28,0,0,1,8,18.714v-9.3A1.28,1.28,0,0,1,9.286,8.129h1.5V6.071a3.925,3.925,0,0,1,1.189-2.882,4.087,4.087,0,0,1,5.764,0,3.925,3.925,0,0,1,1.189,2.882V8.129h1.5a1.28,1.28,0,0,1,1.286,1.286v9.3A1.28,1.28,0,0,1,20.429,20Zm0-1.286H20.429v-9.3H9.286Zm5.571-3a1.609,1.609,0,0,0,1.168-.471,1.531,1.531,0,0,0,.482-1.136,1.687,1.687,0,0,0-.482-1.168,1.561,1.561,0,0,0-2.336,0,1.687,1.687,0,0,0-.482,1.168,1.531,1.531,0,0,0,.482,1.136A1.609,1.609,0,0,0,14.857,15.714ZM12.071,8.129h5.571V6.071A2.788,2.788,0,0,0,12.886,4.1a2.685,2.685,0,0,0-.814,1.971ZM9.286,18.714v0Z" transform="translate(15 563)"/>
  </g>
</svg>
