<svg id="로고" xmlns="http://www.w3.org/2000/svg" xmlns:xlink="http://www.w3.org/1999/xlink" width="93.847" height="28" viewBox="0 0 93.847 28">
  <defs>
    <clipPath id="clip-path">
      <rect id="사각형_3" data-name="사각형 3" width="28" height="28" rx="5" fill="none"/>
    </clipPath>
    <linearGradient id="linear-gradient" x1="0.146" y1="0.854" x2="0.148" y2="0.854" gradientUnits="objectBoundingBox">
      <stop offset="0" stop-color="#0056b8"/>
      <stop offset="0.977" stop-color="#107ceb"/>
      <stop offset="1" stop-color="#0369d1"/>
    </linearGradient>
    <clipPath id="clip-path-2">
      <rect id="사각형_4" data-name="사각형 4" width="28" height="28" fill="none"/>
    </clipPath>
  </defs>
  <g id="그룹_11" data-name="그룹 11" transform="translate(0)">
    <g id="그룹_13" data-name="그룹 13">
      <g id="그룹_4" data-name="그룹 4">
        <g id="그룹_3" data-name="그룹 3" clip-path="url(#clip-path)">
          <rect id="사각형_2" data-name="사각형 2" width="39.435" height="39.435" transform="matrix(0.669, -0.744, 0.744, 0.669, -13.884, 15.438)" fill="url(#linear-gradient)"/>
        </g>
      </g>
      <g id="그룹_9" data-name="그룹 9">
        <g id="그룹_14" data-name="그룹 14">
          <g id="그룹_7" data-name="그룹 7" opacity="0.1">
            <g id="그룹_6" data-name="그룹 6">
              <g id="그룹_5" data-name="그룹 5" clip-path="url(#clip-path-2)">
                <path id="패스_10" data-name="패스 10" d="M7.377,8.028,6.647,0H4.5A4.5,4.5,0,0,0,0,4.5v13.45A24.106,24.106,0,0,1,7.377,8.028" fill="#f6cc5f"/>
                <path id="패스_11" data-name="패스 11" d="M33.662,105.955c-.443-.076-.812-.461-1.1-1.092-.152-.7-.331-1.368-.537-2.011-1.421-4.439-4.093-7.547-7.564-8.141-.23-.039-.46-.066-.69-.082-6.161-.442-12.413,7.186-14.194,17.529a4.5,4.5,0,0,0,3.641,1.854H17.84c.02-.122.039-.243.06-.365,1.057-6.171,3.35-10.928,5.124-10.625.506.087.913.577,1.215,1.375q.16.682.356,1.33c1.279,4.249,3.681,7.34,6.826,8.284h.715a4.5,4.5,0,0,0,4.5-4.5V102.76c-.966,2.112-2.043,3.354-2.976,3.195" transform="translate(-8.714 -86.088)" fill="#f6cc5f"/>
              </g>
            </g>
          </g>
          <path id="패스_12" data-name="패스 12" d="M34.723,164.562l-.167-1.842H32.6l.39,4.222a5.589,5.589,0,0,1,1.736-2.38" transform="translate(-29.661 -148.063)" fill="#f6cc5f"/>
          <path id="패스_13" data-name="패스 13" d="M47.551,162.781H45.683a6.221,6.221,0,0,1-.054,2.115c-.242,1.416-.769,2.508-1.176,2.438-.1-.017-.186-.106-.252-.251-.035-.16-.076-.314-.123-.462a2.453,2.453,0,0,0-1.736-1.868c-.053-.009-.105-.015-.158-.019-1.415-.1-2.852,1.653-3.259,4.03q-.04.235-.065.466h1.955q.01-.065.021-.131c.242-1.416.769-2.508,1.176-2.438.116.02.21.133.279.315q.037.157.082.305a2.493,2.493,0,0,0,1.76,1.947l.011,0c1.462.24,2.985-1.553,3.406-4.013a6.942,6.942,0,0,0,0-2.437" transform="translate(-35.36 -148.118)" fill="#f6cc5f"/>
        </g>
      </g>
      <path id="패스_15" data-name="패스 15" d="M18.232-143.713H23.6c3.094,0,5.557-1.3,5.557-4.2a3.223,3.223,0,0,0-2.521-3.342v-.076a3.318,3.318,0,0,0,1.852-3.074c0-2.731-2.349-3.533-5.29-3.533H18.232Zm3.418-8.574v-3.036h1.413c1.432,0,2.1.42,2.1,1.432,0,.974-.649,1.6-2.1,1.6Zm0,5.958v-3.456h1.7c1.661,0,2.483.477,2.483,1.642,0,1.222-.84,1.814-2.483,1.814Z" transform="translate(-4.27 165.512)" fill="#fff"/>
    </g>
  </g>
  <text id="W_-_Bank" data-name="W - Bank" transform="translate(33.847 20.21)" fill="#0369d1" font-size="15" font-family="NotoSansCJKkr-Black, Noto Sans CJK KR" font-weight="800" letter-spacing="-0.055em"><tspan x="0" y="0">W - Bank</tspan></text>
</svg>
