<svg xmlns="http://www.w3.org/2000/svg" xmlns:xlink="http://www.w3.org/1999/xlink" width="30" height="30" viewBox="0 0 30 30">
  <defs>
    <clipPath id="clip-path">
      <rect id="사각형_2142" data-name="사각형 2142" width="21.551" height="27.874" transform="translate(0 0)" fill="#fff"/>
    </clipPath>
  </defs>
  <g id="인증센터아이콘" transform="translate(-308 -503)">
    <rect id="사각형_3251" data-name="사각형 3251" width="30" height="30" transform="translate(308 503)" fill="rgba(255,255,255,0)"/>
    <g id="인증센터아이콘-2" data-name="인증센터아이콘" transform="translate(312.412 503.882)" clip-path="url(#clip-path)">
      <path id="패스_56" data-name="패스 56" d="M9.893,1.192l8.867,4.84v8.557c0,3.879-3.813,7.86-6.642,9.541a9.188,9.188,0,0,1-2.225.83,9.734,9.734,0,0,1-2.407-.94c-2.807-1.74-6.461-5.634-6.461-9.431V6.032ZM.356,5.087A.738.738,0,0,0,0,5.741v8.8c0,4.375,3.834,8.583,6.984,10.5a11.563,11.563,0,0,0,2.909,1.075,11.221,11.221,0,0,0,2.789-1c3.171-1.878,7.1-6.137,7.1-10.568v-8.8a.738.738,0,0,0-.356-.654L10.3.107a.847.847,0,0,0-.823,0Z" transform="translate(0.882 0.882)" fill="#0369d1" stroke="#0369d1" stroke-width="1"/>
      <path id="패스_57" data-name="패스 57" d="M11.406,6.281,17.96,9.859v6.325c0,2.867-2.819,5.81-4.91,7.052a6.788,6.788,0,0,1-1.645.613,7.216,7.216,0,0,1-1.779-.694c-2.075-1.286-4.775-4.165-4.775-6.971V9.859ZM4.356,9.161a.546.546,0,0,0-.263.483v6.5c0,3.234,2.834,6.344,5.162,7.758a8.538,8.538,0,0,0,2.151.795,8.305,8.305,0,0,0,2.061-.741c2.344-1.388,5.251-4.537,5.251-7.812v-6.5a.546.546,0,0,0-.263-.483L11.71,5.479a.626.626,0,0,0-.609,0Z" transform="translate(-0.63 -1.113)" fill="#0369d1" stroke="#0369d1" stroke-width="0.5"/>
      <path id="패스_58" data-name="패스 58" d="M19.74,19.841a.335.335,0,0,0-.336-.324h-.126A3.077,3.077,0,0,0,16.4,16.423a3.076,3.076,0,0,0-2.88,3.093H13.39a.336.336,0,0,0-.337.323l-.164,4.28a.336.336,0,0,0,.336.349h6.342a.334.334,0,0,0,.243-.1.339.339,0,0,0,.094-.247ZM16.4,17.1a2.4,2.4,0,0,1,2.2,2.42H14.2a2.4,2.4,0,0,1,2.2-2.42m2.682,3.093.139,3.605H13.577l.138-3.605Z" transform="translate(-5.621 -7.358)" fill="#f6cc5f" stroke="#f6cc5f" stroke-width="0.7"/>
      <path id="패스_59" data-name="패스 59" d="M18.445,24.755,18.3,26.189h.744l-.148-1.434a.427.427,0,0,0,.21-.363.434.434,0,0,0-.868,0,.427.427,0,0,0,.21.363" transform="translate(-7.802 -10.527)" fill="#f6cc5f"/>
    </g>
  </g>
</svg>
