<svg xmlns="http://www.w3.org/2000/svg" width="16" height="10" viewBox="0 0 16 10">
  <g id="조회영역" transform="translate(-193 -250)">
    <path id="move_selection_left_FILL0_wght300_GRAD0_opsz20" d="M117.54-688.46v-10h16v10Zm1.1-1.19h13.793v-7.62H118.643Z" transform="translate(75.46 948.46)" fill="#424144"/>
    <path id="pageview_FILL0_wght300_GRAD0_opsz20" d="M133.368-736.163l.564-.572-1.17-1.186a2.037,2.037,0,0,0,.247-.536,2.117,2.117,0,0,0,.082-.6,2.053,2.053,0,0,0-.6-1.5,2,2,0,0,0-1.479-.608,1.991,1.991,0,0,0-1.479.611,2.049,2.049,0,0,0-.6,1.492,2.006,2.006,0,0,0,.6,1.481,2.014,2.014,0,0,0,1.475.6,2.079,2.079,0,0,0,.626-.094,1.923,1.923,0,0,0,.557-.28Zm-2.356-1.615a1.257,1.257,0,0,1-.911-.371,1.22,1.22,0,0,1-.38-.908,1.266,1.266,0,0,1,.38-.922,1.234,1.234,0,0,1,.911-.385,1.234,1.234,0,0,1,.911.385,1.266,1.266,0,0,1,.379.922,1.22,1.22,0,0,1-.379.908A1.257,1.257,0,0,1,131.011-737.778Z" transform="translate(66.068 993.663)" fill="#707070"/>
  </g>
</svg>
